<svg width="418" height="407" viewBox="0 0 418 407" fill="none" xmlns="http://www.w3.org/2000/svg">
<rect width="418" height="407" rx="192" fill="#E6D8CF" fill-opacity="0.8"/>
<path d="M61.9653 111.65H63.9185L64.0771 124.395H61.8066L61.9653 111.65ZM62.8931 109.148C62.478 109.148 62.1688 109.022 61.9653 108.77C61.7619 108.517 61.6602 108.208 61.6602 107.842C61.6602 107.476 61.7619 107.17 61.9653 106.926C62.1688 106.682 62.478 106.56 62.8931 106.56C63.3 106.56 63.6051 106.682 63.8086 106.926C64.0202 107.17 64.126 107.476 64.126 107.842C64.126 108.208 64.0202 108.517 63.8086 108.77C63.6051 109.022 63.3 109.148 62.8931 109.148ZM79.8359 120H77.5898V111.785H70.4365V120H68.2026V102.227H70.4365V109.868H77.5898V102.227H79.8359V120ZM83.4487 112.786C83.4487 110.865 83.9126 109.347 84.8403 108.232C85.7762 107.109 87.0091 106.548 88.5391 106.548C90.069 106.548 91.2979 107.093 92.2256 108.184C93.1615 109.274 93.6416 110.759 93.666 112.639V114.031C93.666 115.943 93.2021 117.457 92.2744 118.572C91.3467 119.687 90.1097 120.244 88.5635 120.244C87.0335 120.244 85.8047 119.703 84.877 118.621C83.9574 117.538 83.4813 116.073 83.4487 114.226V112.786ZM85.6094 114.031C85.6094 115.39 85.8739 116.46 86.4028 117.241C86.9399 118.014 87.6602 118.401 88.5635 118.401C90.4678 118.401 91.4484 117.026 91.5054 114.275V112.786C91.5054 111.435 91.2368 110.369 90.6997 109.587C90.1626 108.798 89.4424 108.403 88.5391 108.403C87.652 108.403 86.9399 108.798 86.4028 109.587C85.8739 110.369 85.6094 111.431 85.6094 112.773V114.031ZM99.2808 120H97.1201V101.25H99.2808V120ZM109.986 120C109.856 119.715 109.762 119.235 109.705 118.56C108.94 119.683 107.964 120.244 106.775 120.244C105.579 120.244 104.643 119.91 103.968 119.243C103.3 118.568 102.967 117.62 102.967 116.399C102.967 115.056 103.423 113.99 104.334 113.201C105.245 112.411 106.495 112.008 108.082 111.992H109.668V110.588C109.668 109.799 109.493 109.237 109.144 108.904C108.794 108.57 108.261 108.403 107.544 108.403C106.893 108.403 106.364 108.599 105.958 108.989C105.551 109.372 105.347 109.86 105.347 110.454H103.187C103.187 109.779 103.386 109.136 103.785 108.525C104.183 107.907 104.721 107.423 105.396 107.073C106.071 106.723 106.824 106.548 107.654 106.548C109.005 106.548 110.031 106.886 110.73 107.561C111.438 108.228 111.801 109.205 111.817 110.491V117.156C111.825 118.173 111.963 119.056 112.232 119.805V120H109.986ZM107.105 118.279C107.634 118.279 108.139 118.132 108.619 117.839C109.099 117.546 109.449 117.18 109.668 116.741V113.591H108.448C107.422 113.608 106.613 113.84 106.019 114.287C105.424 114.727 105.127 115.345 105.127 116.143C105.127 116.891 105.278 117.437 105.579 117.778C105.88 118.112 106.389 118.279 107.105 118.279ZM118.115 114.983H116.174L116.016 102.227H118.286L118.115 114.983ZM117.2 117.571C117.607 117.571 117.912 117.697 118.115 117.949C118.327 118.193 118.433 118.499 118.433 118.865C118.433 119.231 118.327 119.536 118.115 119.78C117.912 120.016 117.607 120.134 117.2 120.134C116.785 120.134 116.475 120.016 116.272 119.78C116.069 119.536 115.967 119.231 115.967 118.865C115.967 118.499 116.069 118.193 116.272 117.949C116.475 117.697 116.785 117.571 117.2 117.571ZM141.42 106.792L141.469 108.013C142.275 107.036 143.337 106.548 144.655 106.548C146.128 106.548 147.158 107.187 147.744 108.464C148.574 107.187 149.729 106.548 151.21 106.548C153.644 106.548 154.889 108.066 154.946 111.101V120H152.797V111.309C152.797 110.348 152.626 109.636 152.285 109.172C151.943 108.7 151.365 108.464 150.551 108.464C149.9 108.464 149.371 108.717 148.964 109.221C148.557 109.726 148.321 110.369 148.256 111.15V120H146.083V111.211C146.059 109.38 145.314 108.464 143.85 108.464C142.759 108.464 141.99 109.01 141.542 110.1V120H139.394V106.792H141.42ZM161.037 120H158.876V106.792H161.037V120ZM161.208 103.289C161.208 103.655 161.106 103.96 160.902 104.204C160.699 104.448 160.39 104.57 159.975 104.57C159.568 104.57 159.263 104.448 159.059 104.204C158.856 103.96 158.754 103.655 158.754 103.289C158.754 102.922 158.856 102.613 159.059 102.361C159.263 102.109 159.568 101.982 159.975 101.982C160.382 101.982 160.687 102.113 160.89 102.373C161.102 102.625 161.208 102.931 161.208 103.289ZM184.037 106.792L184.098 108.22C184.936 107.105 186.006 106.548 187.308 106.548C189.644 106.548 190.828 108.106 190.86 111.223V120H188.712V111.321C188.712 110.287 188.537 109.555 188.187 109.124C187.845 108.684 187.328 108.464 186.637 108.464C186.1 108.464 185.615 108.643 185.184 109.001C184.761 109.36 184.419 109.827 184.159 110.405V120H181.998V106.792H184.037ZM194.156 112.786C194.156 110.865 194.62 109.347 195.547 108.232C196.483 107.109 197.716 106.548 199.246 106.548C200.776 106.548 202.005 107.093 202.933 108.184C203.868 109.274 204.349 110.759 204.373 112.639V114.031C204.373 115.943 203.909 117.457 202.981 118.572C202.054 119.687 200.817 120.244 199.271 120.244C197.741 120.244 196.512 119.703 195.584 118.621C194.664 117.538 194.188 116.073 194.156 114.226V112.786ZM196.316 114.031C196.316 115.39 196.581 116.46 197.11 117.241C197.647 118.014 198.367 118.401 199.271 118.401C201.175 118.401 202.155 117.026 202.212 114.275V112.786C202.212 111.435 201.944 110.369 201.407 109.587C200.87 108.798 200.149 108.403 199.246 108.403C198.359 108.403 197.647 108.798 197.11 109.587C196.581 110.369 196.316 111.431 196.316 112.773V114.031ZM209.695 106.792L209.744 108.013C210.549 107.036 211.611 106.548 212.93 106.548C214.403 106.548 215.432 107.187 216.018 108.464C216.848 107.187 218.004 106.548 219.485 106.548C221.918 106.548 223.163 108.066 223.22 111.101V120H221.072V111.309C221.072 110.348 220.901 109.636 220.559 109.172C220.217 108.7 219.639 108.464 218.826 108.464C218.175 108.464 217.646 108.717 217.239 109.221C216.832 109.726 216.596 110.369 216.531 111.15V120H214.358V111.211C214.333 109.38 213.589 108.464 212.124 108.464C211.034 108.464 210.264 109.01 209.817 110.1V120H207.668V106.792H209.695ZM236.55 114.031C236.55 116.09 236.18 117.64 235.439 118.682C234.698 119.723 233.624 120.244 232.216 120.244C230.817 120.244 229.767 119.642 229.067 118.438L228.957 120H226.992V101.25H229.14V108.245C229.848 107.113 230.865 106.548 232.192 106.548C233.64 106.548 234.727 107.061 235.451 108.086C236.175 109.111 236.542 110.658 236.55 112.725V114.031ZM234.401 112.798C234.401 111.235 234.182 110.125 233.742 109.465C233.311 108.798 232.607 108.464 231.63 108.464C230.515 108.464 229.685 109.067 229.14 110.271V116.558C229.677 117.746 230.515 118.34 231.655 118.34C232.631 118.34 233.331 117.998 233.754 117.314C234.178 116.631 234.393 115.569 234.401 114.128V112.798ZM245.265 108.818C244.964 108.761 244.639 108.733 244.289 108.733C243.182 108.733 242.409 109.339 241.969 110.552V120H239.809V106.792H241.908L241.945 108.135C242.523 107.077 243.34 106.548 244.398 106.548C244.74 106.548 245.025 106.605 245.253 106.719L245.265 108.818ZM252.406 120.244C250.762 120.244 249.5 119.756 248.622 118.779C247.743 117.795 247.295 116.354 247.279 114.458V112.859C247.279 110.889 247.706 109.347 248.561 108.232C249.423 107.109 250.624 106.548 252.162 106.548C253.708 106.548 254.863 107.04 255.628 108.025C256.393 109.01 256.784 110.544 256.8 112.627V114.043H249.427V114.348C249.427 115.764 249.692 116.794 250.221 117.437C250.758 118.079 251.527 118.401 252.528 118.401C253.163 118.401 253.72 118.283 254.2 118.047C254.688 117.803 255.144 117.42 255.567 116.899L256.69 118.267C255.755 119.585 254.326 120.244 252.406 120.244ZM252.162 108.403C251.266 108.403 250.603 108.713 250.172 109.331C249.741 109.941 249.496 110.894 249.439 112.188H254.64V111.895C254.583 110.641 254.355 109.746 253.956 109.209C253.565 108.672 252.967 108.403 252.162 108.403ZM281.68 120.244C280.036 120.244 278.775 119.756 277.896 118.779C277.017 117.795 276.569 116.354 276.553 114.458V112.859C276.553 110.889 276.98 109.347 277.835 108.232C278.698 107.109 279.898 106.548 281.436 106.548C282.982 106.548 284.138 107.04 284.903 108.025C285.668 109.01 286.058 110.544 286.075 112.627V114.043H278.702V114.348C278.702 115.764 278.966 116.794 279.495 117.437C280.032 118.079 280.801 118.401 281.802 118.401C282.437 118.401 282.994 118.283 283.475 118.047C283.963 117.803 284.419 117.42 284.842 116.899L285.965 118.267C285.029 119.585 283.601 120.244 281.68 120.244ZM281.436 108.403C280.541 108.403 279.878 108.713 279.446 109.331C279.015 109.941 278.771 110.894 278.714 112.188H283.914V111.895C283.857 110.641 283.629 109.746 283.23 109.209C282.84 108.672 282.242 108.403 281.436 108.403ZM295.596 116.619C295.596 116.155 295.421 115.756 295.071 115.422C294.721 115.089 294.045 114.698 293.044 114.25C291.881 113.77 291.059 113.359 290.579 113.018C290.107 112.676 289.753 112.289 289.517 111.858C289.281 111.418 289.163 110.898 289.163 110.295C289.163 109.221 289.553 108.33 290.334 107.622C291.124 106.906 292.129 106.548 293.35 106.548C294.635 106.548 295.669 106.922 296.45 107.671C297.231 108.42 297.622 109.38 297.622 110.552H295.474C295.474 109.958 295.274 109.453 294.875 109.038C294.477 108.615 293.968 108.403 293.35 108.403C292.715 108.403 292.214 108.57 291.848 108.904C291.49 109.229 291.311 109.669 291.311 110.222C291.311 110.662 291.441 111.016 291.702 111.284C291.97 111.553 292.609 111.907 293.618 112.346C295.221 112.973 296.312 113.587 296.89 114.189C297.467 114.784 297.756 115.54 297.756 116.46C297.756 117.607 297.362 118.527 296.572 119.219C295.783 119.902 294.725 120.244 293.398 120.244C292.023 120.244 290.908 119.849 290.054 119.06C289.199 118.271 288.772 117.27 288.772 116.057H290.945C290.969 116.79 291.193 117.363 291.616 117.778C292.039 118.193 292.633 118.401 293.398 118.401C294.115 118.401 294.66 118.242 295.034 117.925C295.409 117.599 295.596 117.164 295.596 116.619ZM323.808 112.81H320.683V120H318.437V102.227H323.417C325.159 102.227 326.477 102.682 327.373 103.594C328.268 104.497 328.715 105.824 328.715 107.573C328.715 108.672 328.471 109.632 327.983 110.454C327.503 111.268 326.819 111.882 325.932 112.297L329.375 119.854V120H326.97L323.808 112.81ZM320.683 110.894H323.393C324.329 110.894 325.074 110.592 325.627 109.99C326.188 109.388 326.469 108.582 326.469 107.573C326.469 105.295 325.436 104.155 323.369 104.155H320.683V110.894ZM338.712 120C338.582 119.715 338.489 119.235 338.432 118.56C337.667 119.683 336.69 120.244 335.502 120.244C334.306 120.244 333.37 119.91 332.694 119.243C332.027 118.568 331.693 117.62 331.693 116.399C331.693 115.056 332.149 113.99 333.061 113.201C333.972 112.411 335.221 112.008 336.808 111.992H338.395V110.588C338.395 109.799 338.22 109.237 337.87 108.904C337.52 108.57 336.987 108.403 336.271 108.403C335.62 108.403 335.091 108.599 334.684 108.989C334.277 109.372 334.074 109.86 334.074 110.454H331.913C331.913 109.779 332.112 109.136 332.511 108.525C332.91 107.907 333.447 107.423 334.123 107.073C334.798 106.723 335.551 106.548 336.381 106.548C337.732 106.548 338.757 106.886 339.457 107.561C340.165 108.228 340.527 109.205 340.543 110.491V117.156C340.552 118.173 340.69 119.056 340.958 119.805V120H338.712ZM335.832 118.279C336.361 118.279 336.865 118.132 337.345 117.839C337.825 117.546 338.175 117.18 338.395 116.741V113.591H337.174C336.149 113.608 335.339 113.84 334.745 114.287C334.151 114.727 333.854 115.345 333.854 116.143C333.854 116.891 334.005 117.437 334.306 117.778C334.607 118.112 335.115 118.279 335.832 118.279ZM346.732 120H344.571V106.792H346.732V120ZM346.903 103.289C346.903 103.655 346.801 103.96 346.598 104.204C346.394 104.448 346.085 104.57 345.67 104.57C345.263 104.57 344.958 104.448 344.754 104.204C344.551 103.96 344.449 103.655 344.449 103.289C344.449 102.922 344.551 102.613 344.754 102.361C344.958 102.109 345.263 101.982 345.67 101.982C346.077 101.982 346.382 102.113 346.585 102.373C346.797 102.625 346.903 102.931 346.903 103.289ZM352.64 118.157H359.012V120H350.174V118.34L356.229 108.66H350.223V106.792H358.768V108.391L352.64 118.157ZM368.923 120C368.793 119.715 368.7 119.235 368.643 118.56C367.878 119.683 366.901 120.244 365.713 120.244C364.517 120.244 363.581 119.91 362.905 119.243C362.238 118.568 361.904 117.62 361.904 116.399C361.904 115.056 362.36 113.99 363.271 113.201C364.183 112.411 365.432 112.008 367.019 111.992H368.606V110.588C368.606 109.799 368.431 109.237 368.081 108.904C367.731 108.57 367.198 108.403 366.482 108.403C365.831 108.403 365.302 108.599 364.895 108.989C364.488 109.372 364.285 109.86 364.285 110.454H362.124C362.124 109.779 362.323 109.136 362.722 108.525C363.121 107.907 363.658 107.423 364.333 107.073C365.009 106.723 365.762 106.548 366.592 106.548C367.943 106.548 368.968 106.886 369.668 107.561C370.376 108.228 370.738 109.205 370.754 110.491V117.156C370.763 118.173 370.901 119.056 371.169 119.805V120H368.923ZM366.042 118.279C366.571 118.279 367.076 118.132 367.556 117.839C368.036 117.546 368.386 117.18 368.606 116.741V113.591H367.385C366.36 113.608 365.55 113.84 364.956 114.287C364.362 114.727 364.065 115.345 364.065 116.143C364.065 116.891 364.215 117.437 364.517 117.778C364.818 118.112 365.326 118.279 366.042 118.279ZM64.1626 147.083H71.1328V149H61.9165V131.227H64.1626V147.083ZM73.5493 141.786C73.5493 139.865 74.0132 138.347 74.9409 137.232C75.8768 136.109 77.1097 135.548 78.6396 135.548C80.1696 135.548 81.3984 136.093 82.3262 137.184C83.262 138.274 83.7422 139.759 83.7666 141.639V143.031C83.7666 144.943 83.3027 146.457 82.375 147.572C81.4473 148.687 80.2103 149.244 78.6641 149.244C77.1341 149.244 75.9053 148.703 74.9775 147.621C74.0579 146.538 73.5819 145.073 73.5493 143.226V141.786ZM75.71 143.031C75.71 144.39 75.9744 145.46 76.5034 146.241C77.0405 147.014 77.7607 147.401 78.6641 147.401C80.5684 147.401 81.549 146.026 81.606 143.275V141.786C81.606 140.435 81.3374 139.369 80.8003 138.587C80.2632 137.798 79.543 137.403 78.6396 137.403C77.7526 137.403 77.0405 137.798 76.5034 138.587C75.9744 139.369 75.71 140.431 75.71 141.773V143.031ZM89.0884 135.792L89.1494 137.22C89.9876 136.105 91.0578 135.548 92.3599 135.548C94.6955 135.548 95.8796 137.106 95.9121 140.223V149H93.7637V140.321C93.7637 139.287 93.5887 138.555 93.2388 138.124C92.897 137.684 92.3802 137.464 91.6885 137.464C91.1514 137.464 90.6672 137.643 90.2358 138.001C89.8127 138.36 89.4709 138.827 89.2104 139.405V149H87.0498V135.792H89.0884ZM99.2319 141.798C99.2319 139.739 99.6063 138.185 100.355 137.135C101.104 136.077 102.198 135.548 103.639 135.548C104.981 135.548 106.003 136.122 106.703 137.269L106.812 135.792H108.766V149.122C108.766 150.758 108.347 152.011 107.508 152.882C106.67 153.761 105.502 154.2 104.005 154.2C103.354 154.2 102.621 154.037 101.808 153.712C101.002 153.395 100.396 153 99.9888 152.528L100.868 151.039C101.763 151.917 102.752 152.357 103.834 152.357C105.632 152.357 106.556 151.376 106.605 149.415V147.694C105.905 148.727 104.912 149.244 103.626 149.244C102.259 149.244 101.193 148.731 100.428 147.706C99.6632 146.673 99.2645 145.191 99.2319 143.263V141.798ZM101.393 143.031C101.393 144.512 101.608 145.602 102.04 146.302C102.479 146.994 103.195 147.34 104.188 147.34C105.262 147.34 106.068 146.791 106.605 145.692V139.088C106.043 138.006 105.246 137.464 104.212 137.464C103.22 137.464 102.503 137.814 102.064 138.514C101.625 139.206 101.401 140.272 101.393 141.712V143.031ZM119.288 149C119.157 148.715 119.064 148.235 119.007 147.56C118.242 148.683 117.265 149.244 116.077 149.244C114.881 149.244 113.945 148.91 113.27 148.243C112.602 147.568 112.269 146.62 112.269 145.399C112.269 144.056 112.724 142.99 113.636 142.201C114.547 141.411 115.796 141.008 117.383 140.992H118.97V139.588C118.97 138.799 118.795 138.237 118.445 137.904C118.095 137.57 117.562 137.403 116.846 137.403C116.195 137.403 115.666 137.599 115.259 137.989C114.852 138.372 114.649 138.86 114.649 139.454H112.488C112.488 138.779 112.688 138.136 113.086 137.525C113.485 136.907 114.022 136.423 114.698 136.073C115.373 135.723 116.126 135.548 116.956 135.548C118.307 135.548 119.332 135.886 120.032 136.561C120.74 137.228 121.102 138.205 121.119 139.491V146.156C121.127 147.173 121.265 148.056 121.534 148.805V149H119.288ZM116.407 147.279C116.936 147.279 117.44 147.132 117.92 146.839C118.401 146.546 118.75 146.18 118.97 145.741V142.591H117.75C116.724 142.608 115.914 142.84 115.32 143.287C114.726 143.727 114.429 144.345 114.429 145.143C114.429 145.891 114.58 146.437 114.881 146.778C115.182 147.112 115.691 147.279 116.407 147.279ZM130.432 137.818C130.131 137.761 129.806 137.733 129.456 137.733C128.349 137.733 127.576 138.339 127.136 139.552V149H124.976V135.792H127.075L127.112 137.135C127.69 136.077 128.507 135.548 129.565 135.548C129.907 135.548 130.192 135.605 130.42 135.719L130.432 137.818ZM136.535 132.594V135.792H138.525V137.538H136.535V145.729C136.535 146.249 136.621 146.644 136.792 146.913C136.962 147.181 137.255 147.315 137.67 147.315C137.955 147.315 138.244 147.267 138.537 147.169L138.513 149C138.024 149.163 137.524 149.244 137.011 149.244C136.157 149.244 135.506 148.939 135.058 148.329C134.611 147.718 134.387 146.856 134.387 145.741V137.538H132.373V135.792H134.387V132.594H136.535ZM157.49 145.411L159.895 135.792H162.19L157.868 150.868C157.543 151.999 157.083 152.857 156.489 153.443C155.895 154.037 155.219 154.334 154.463 154.334C154.17 154.334 153.795 154.269 153.34 154.139V152.308L153.816 152.357C154.442 152.357 154.93 152.206 155.28 151.905C155.639 151.612 155.927 151.1 156.147 150.367L156.574 148.89L152.693 135.792H155.049L157.49 145.411ZM183.498 145.619C183.498 145.155 183.323 144.756 182.973 144.422C182.624 144.089 181.948 143.698 180.947 143.25C179.783 142.77 178.961 142.359 178.481 142.018C178.009 141.676 177.655 141.289 177.419 140.858C177.183 140.418 177.065 139.898 177.065 139.295C177.065 138.221 177.456 137.33 178.237 136.622C179.027 135.906 180.032 135.548 181.252 135.548C182.538 135.548 183.572 135.922 184.353 136.671C185.134 137.42 185.525 138.38 185.525 139.552H183.376C183.376 138.958 183.177 138.453 182.778 138.038C182.379 137.615 181.871 137.403 181.252 137.403C180.618 137.403 180.117 137.57 179.751 137.904C179.393 138.229 179.214 138.669 179.214 139.222C179.214 139.662 179.344 140.016 179.604 140.284C179.873 140.553 180.512 140.907 181.521 141.346C183.124 141.973 184.215 142.587 184.792 143.189C185.37 143.784 185.659 144.54 185.659 145.46C185.659 146.607 185.264 147.527 184.475 148.219C183.686 148.902 182.628 149.244 181.301 149.244C179.926 149.244 178.811 148.849 177.956 148.06C177.102 147.271 176.675 146.27 176.675 145.057H178.847C178.872 145.79 179.096 146.363 179.519 146.778C179.942 147.193 180.536 147.401 181.301 147.401C182.017 147.401 182.563 147.242 182.937 146.925C183.311 146.599 183.498 146.164 183.498 145.619ZM188.527 141.786C188.527 139.865 188.991 138.347 189.919 137.232C190.855 136.109 192.088 135.548 193.618 135.548C195.147 135.548 196.376 136.093 197.304 137.184C198.24 138.274 198.72 139.759 198.744 141.639V143.031C198.744 144.943 198.281 146.457 197.353 147.572C196.425 148.687 195.188 149.244 193.642 149.244C192.112 149.244 190.883 148.703 189.955 147.621C189.036 146.538 188.56 145.073 188.527 143.226V141.786ZM190.688 143.031C190.688 144.39 190.952 145.46 191.481 146.241C192.018 147.014 192.739 147.401 193.642 147.401C195.546 147.401 196.527 146.026 196.584 143.275V141.786C196.584 140.435 196.315 139.369 195.778 138.587C195.241 137.798 194.521 137.403 193.618 137.403C192.73 137.403 192.018 137.798 191.481 138.587C190.952 139.369 190.688 140.431 190.688 141.773V143.031ZM205.446 145.411L207.85 135.792H210.145L205.824 150.868C205.499 151.999 205.039 152.857 204.445 153.443C203.851 154.037 203.175 154.334 202.418 154.334C202.125 154.334 201.751 154.269 201.295 154.139V152.308L201.771 152.357C202.398 152.357 202.886 152.206 203.236 151.905C203.594 151.612 203.883 151.1 204.103 150.367L204.53 148.89L200.648 135.792H203.004L205.446 145.411ZM224.582 141.798C224.582 139.763 224.96 138.213 225.717 137.147C226.482 136.081 227.576 135.548 229 135.548C230.262 135.548 231.247 136.061 231.955 137.086V130.25H234.115V149H232.138L232.028 147.584C231.32 148.691 230.307 149.244 228.988 149.244C227.621 149.244 226.547 148.715 225.766 147.657C224.993 146.591 224.598 145.09 224.582 143.153V141.798ZM226.742 143.031C226.742 144.512 226.962 145.602 227.401 146.302C227.841 146.994 228.557 147.34 229.55 147.34C230.624 147.34 231.426 146.799 231.955 145.716V139.051C231.401 137.993 230.604 137.464 229.562 137.464C228.569 137.464 227.853 137.814 227.414 138.514C226.974 139.206 226.75 140.272 226.742 141.712V143.031ZM242.66 149.244C241.016 149.244 239.754 148.756 238.875 147.779C237.997 146.795 237.549 145.354 237.533 143.458V141.859C237.533 139.889 237.96 138.347 238.814 137.232C239.677 136.109 240.877 135.548 242.416 135.548C243.962 135.548 245.117 136.04 245.882 137.025C246.647 138.01 247.038 139.544 247.054 141.627V143.043H239.681V143.348C239.681 144.764 239.946 145.794 240.475 146.437C241.012 147.079 241.781 147.401 242.782 147.401C243.417 147.401 243.974 147.283 244.454 147.047C244.942 146.803 245.398 146.42 245.821 145.899L246.944 147.267C246.008 148.585 244.58 149.244 242.66 149.244ZM242.416 137.403C241.52 137.403 240.857 137.713 240.426 138.331C239.994 138.941 239.75 139.894 239.693 141.188H244.894V140.895C244.837 139.641 244.609 138.746 244.21 138.209C243.819 137.672 243.221 137.403 242.416 137.403ZM256.575 145.619C256.575 145.155 256.4 144.756 256.05 144.422C255.7 144.089 255.025 143.698 254.024 143.25C252.86 142.77 252.038 142.359 251.558 142.018C251.086 141.676 250.732 141.289 250.496 140.858C250.26 140.418 250.142 139.898 250.142 139.295C250.142 138.221 250.533 137.33 251.314 136.622C252.103 135.906 253.108 135.548 254.329 135.548C255.615 135.548 256.648 135.922 257.43 136.671C258.211 137.42 258.602 138.38 258.602 139.552H256.453C256.453 138.958 256.254 138.453 255.855 138.038C255.456 137.615 254.948 137.403 254.329 137.403C253.694 137.403 253.194 137.57 252.828 137.904C252.47 138.229 252.291 138.669 252.291 139.222C252.291 139.662 252.421 140.016 252.681 140.284C252.95 140.553 253.589 140.907 254.598 141.346C256.201 141.973 257.291 142.587 257.869 143.189C258.447 143.784 258.736 144.54 258.736 145.46C258.736 146.607 258.341 147.527 257.552 148.219C256.762 148.902 255.704 149.244 254.378 149.244C253.003 149.244 251.888 148.849 251.033 148.06C250.179 147.271 249.751 146.27 249.751 145.057H251.924C251.949 145.79 252.173 146.363 252.596 146.778C253.019 147.193 253.613 147.401 254.378 147.401C255.094 147.401 255.639 147.242 256.014 146.925C256.388 146.599 256.575 146.164 256.575 145.619ZM268.855 149C268.725 148.715 268.631 148.235 268.574 147.56C267.809 148.683 266.833 149.244 265.645 149.244C264.448 149.244 263.512 148.91 262.837 148.243C262.17 147.568 261.836 146.62 261.836 145.399C261.836 144.056 262.292 142.99 263.203 142.201C264.115 141.411 265.364 141.008 266.951 140.992H268.538V139.588C268.538 138.799 268.363 138.237 268.013 137.904C267.663 137.57 267.13 137.403 266.414 137.403C265.763 137.403 265.234 137.599 264.827 137.989C264.42 138.372 264.216 138.86 264.216 139.454H262.056C262.056 138.779 262.255 138.136 262.654 137.525C263.053 136.907 263.59 136.423 264.265 136.073C264.941 135.723 265.693 135.548 266.523 135.548C267.874 135.548 268.9 135.886 269.6 136.561C270.308 137.228 270.67 138.205 270.686 139.491V146.156C270.694 147.173 270.833 148.056 271.101 148.805V149H268.855ZM265.974 147.279C266.503 147.279 267.008 147.132 267.488 146.839C267.968 146.546 268.318 146.18 268.538 145.741V142.591H267.317C266.292 142.608 265.482 142.84 264.888 143.287C264.294 143.727 263.997 144.345 263.997 145.143C263.997 145.891 264.147 146.437 264.448 146.778C264.749 147.112 265.258 147.279 265.974 147.279ZM280 137.818C279.698 137.761 279.373 137.733 279.023 137.733C277.916 137.733 277.143 138.339 276.704 139.552V149H274.543V135.792H276.643L276.679 137.135C277.257 136.077 278.075 135.548 279.133 135.548C279.475 135.548 279.759 135.605 279.987 135.719L280 137.818ZM288.117 137.818C287.816 137.761 287.49 137.733 287.14 137.733C286.033 137.733 285.26 138.339 284.821 139.552V149H282.66V135.792H284.76L284.796 137.135C285.374 136.077 286.192 135.548 287.25 135.548C287.592 135.548 287.877 135.605 288.104 135.719L288.117 137.818ZM290.082 141.786C290.082 139.865 290.545 138.347 291.473 137.232C292.409 136.109 293.642 135.548 295.172 135.548C296.702 135.548 297.931 136.093 298.858 137.184C299.794 138.274 300.274 139.759 300.299 141.639V143.031C300.299 144.943 299.835 146.457 298.907 147.572C297.979 148.687 296.743 149.244 295.196 149.244C293.666 149.244 292.438 148.703 291.51 147.621C290.59 146.538 290.114 145.073 290.082 143.226V141.786ZM292.242 143.031C292.242 144.39 292.507 145.46 293.036 146.241C293.573 147.014 294.293 147.401 295.196 147.401C297.101 147.401 298.081 146.026 298.138 143.275V141.786C298.138 140.435 297.87 139.369 297.333 138.587C296.795 137.798 296.075 137.403 295.172 137.403C294.285 137.403 293.573 137.798 293.036 138.587C292.507 139.369 292.242 140.431 292.242 141.773V143.031ZM305.914 149H303.753V130.25H305.914V149ZM312.151 149H309.99V130.25H312.151V149ZM322.856 149C322.726 148.715 322.632 148.235 322.575 147.56C321.81 148.683 320.834 149.244 319.646 149.244C318.449 149.244 317.513 148.91 316.838 148.243C316.171 147.568 315.837 146.62 315.837 145.399C315.837 144.056 316.293 142.99 317.204 142.201C318.116 141.411 319.365 141.008 320.952 140.992H322.539V139.588C322.539 138.799 322.364 138.237 322.014 137.904C321.664 137.57 321.131 137.403 320.415 137.403C319.764 137.403 319.235 137.599 318.828 137.989C318.421 138.372 318.217 138.86 318.217 139.454H316.057C316.057 138.779 316.256 138.136 316.655 137.525C317.054 136.907 317.591 136.423 318.266 136.073C318.942 135.723 319.694 135.548 320.524 135.548C321.875 135.548 322.901 135.886 323.601 136.561C324.309 137.228 324.671 138.205 324.687 139.491V146.156C324.695 147.173 324.833 148.056 325.102 148.805V149H322.856ZM319.975 147.279C320.504 147.279 321.009 147.132 321.489 146.839C321.969 146.546 322.319 146.18 322.539 145.741V142.591H321.318C320.292 142.608 319.483 142.84 318.889 143.287C318.295 143.727 317.998 144.345 317.998 145.143C317.998 145.891 318.148 146.437 318.449 146.778C318.75 147.112 319.259 147.279 319.975 147.279ZM328.092 141.798C328.092 139.763 328.471 138.213 329.228 137.147C329.993 136.081 331.087 135.548 332.511 135.548C333.773 135.548 334.757 136.061 335.465 137.086V130.25H337.626V149H335.648L335.539 147.584C334.831 148.691 333.817 149.244 332.499 149.244C331.132 149.244 330.058 148.715 329.276 147.657C328.503 146.591 328.109 145.09 328.092 143.153V141.798ZM330.253 143.031C330.253 144.512 330.473 145.602 330.912 146.302C331.352 146.994 332.068 147.34 333.061 147.34C334.135 147.34 334.936 146.799 335.465 145.716V139.051C334.912 137.993 334.114 137.464 333.073 137.464C332.08 137.464 331.364 137.814 330.924 138.514C330.485 139.206 330.261 140.272 330.253 141.712V143.031ZM340.995 141.786C340.995 139.865 341.458 138.347 342.386 137.232C343.322 136.109 344.555 135.548 346.085 135.548C347.615 135.548 348.844 136.093 349.771 137.184C350.707 138.274 351.188 139.759 351.212 141.639V143.031C351.212 144.943 350.748 146.457 349.82 147.572C348.893 148.687 347.656 149.244 346.109 149.244C344.579 149.244 343.351 148.703 342.423 147.621C341.503 146.538 341.027 145.073 340.995 143.226V141.786ZM343.155 143.031C343.155 144.39 343.42 145.46 343.949 146.241C344.486 147.014 345.206 147.401 346.109 147.401C348.014 147.401 348.994 146.026 349.051 143.275V141.786C349.051 140.435 348.783 139.369 348.246 138.587C347.708 137.798 346.988 137.403 346.085 137.403C345.198 137.403 344.486 137.798 343.949 138.587C343.42 139.369 343.155 140.431 343.155 141.773V143.031ZM359.952 137.818C359.651 137.761 359.325 137.733 358.975 137.733C357.868 137.733 357.095 138.339 356.656 139.552V149H354.495V135.792H356.595L356.631 137.135C357.209 136.077 358.027 135.548 359.085 135.548C359.427 135.548 359.712 135.605 359.939 135.719L359.952 137.818ZM368.923 149C368.793 148.715 368.7 148.235 368.643 147.56C367.878 148.683 366.901 149.244 365.713 149.244C364.517 149.244 363.581 148.91 362.905 148.243C362.238 147.568 361.904 146.62 361.904 145.399C361.904 144.056 362.36 142.99 363.271 142.201C364.183 141.411 365.432 141.008 367.019 140.992H368.606V139.588C368.606 138.799 368.431 138.237 368.081 137.904C367.731 137.57 367.198 137.403 366.482 137.403C365.831 137.403 365.302 137.599 364.895 137.989C364.488 138.372 364.285 138.86 364.285 139.454H362.124C362.124 138.779 362.323 138.136 362.722 137.525C363.121 136.907 363.658 136.423 364.333 136.073C365.009 135.723 365.762 135.548 366.592 135.548C367.943 135.548 368.968 135.886 369.668 136.561C370.376 137.228 370.738 138.205 370.754 139.491V146.156C370.763 147.173 370.901 148.056 371.169 148.805V149H368.923ZM366.042 147.279C366.571 147.279 367.076 147.132 367.556 146.839C368.036 146.546 368.386 146.18 368.606 145.741V142.591H367.385C366.36 142.608 365.55 142.84 364.956 143.287C364.362 143.727 364.065 144.345 364.065 145.143C364.065 145.891 364.215 146.437 364.517 146.778C364.818 147.112 365.326 147.279 366.042 147.279ZM71.4624 174.204L73.4644 164.792H75.6006L72.3657 178H70.6445L68.0688 168.552L65.5542 178H63.8208L60.6104 164.792H62.7344L64.7852 173.972L67.2388 164.792H68.9478L71.4624 174.204ZM83.0952 178.244C81.4513 178.244 80.1899 177.756 79.311 176.779C78.4321 175.795 77.9845 174.354 77.9683 172.458V170.859C77.9683 168.889 78.3955 167.347 79.25 166.232C80.1126 165.109 81.313 164.548 82.8511 164.548C84.3973 164.548 85.5529 165.04 86.3179 166.025C87.0828 167.01 87.4735 168.544 87.4897 170.627V172.043H80.1167V172.348C80.1167 173.764 80.3812 174.794 80.9102 175.437C81.4473 176.079 82.2163 176.401 83.2173 176.401C83.8521 176.401 84.4095 176.283 84.8896 176.047C85.3779 175.803 85.8337 175.42 86.2568 174.899L87.3799 176.267C86.444 177.585 85.0158 178.244 83.0952 178.244ZM82.8511 166.403C81.9559 166.403 81.2926 166.713 80.8613 167.331C80.43 167.941 80.1859 168.894 80.1289 170.188H85.3291V169.895C85.2721 168.641 85.0443 167.746 84.6455 167.209C84.2549 166.672 83.6567 166.403 82.8511 166.403ZM100.16 172.031C100.16 174.09 99.7899 175.64 99.0493 176.682C98.3088 177.723 97.2345 178.244 95.8267 178.244C94.4269 178.244 93.3771 177.642 92.6772 176.438L92.5674 178H90.6021V159.25H92.7505V166.245C93.4585 165.113 94.4757 164.548 95.8022 164.548C97.2508 164.548 98.3372 165.061 99.0615 166.086C99.7858 167.111 100.152 168.658 100.16 170.725V172.031ZM98.0117 170.798C98.0117 169.235 97.792 168.125 97.3525 167.465C96.9212 166.798 96.2173 166.464 95.2407 166.464C94.1258 166.464 93.2957 167.067 92.7505 168.271V174.558C93.2876 175.746 94.1258 176.34 95.2651 176.34C96.2417 176.34 96.9416 175.998 97.3647 175.314C97.7879 174.631 98.0036 173.569 98.0117 172.128V170.798ZM118.201 170.151H112.195V178H109.961V160.227H119.214V162.155H112.195V168.234H118.201V170.151ZM127.307 166.818C127.006 166.761 126.681 166.733 126.331 166.733C125.224 166.733 124.451 167.339 124.011 168.552V178H121.851V164.792H123.95L123.987 166.135C124.565 165.077 125.382 164.548 126.44 164.548C126.782 164.548 127.067 164.605 127.295 164.719L127.307 166.818ZM129.272 170.786C129.272 168.865 129.736 167.347 130.664 166.232C131.599 165.109 132.832 164.548 134.362 164.548C135.892 164.548 137.121 165.093 138.049 166.184C138.985 167.274 139.465 168.759 139.489 170.639V172.031C139.489 173.943 139.025 175.457 138.098 176.572C137.17 177.687 135.933 178.244 134.387 178.244C132.857 178.244 131.628 177.703 130.7 176.621C129.781 175.538 129.305 174.073 129.272 172.226V170.786ZM131.433 172.031C131.433 173.39 131.697 174.46 132.226 175.241C132.763 176.014 133.483 176.401 134.387 176.401C136.291 176.401 137.272 175.026 137.329 172.275V170.786C137.329 169.435 137.06 168.369 136.523 167.587C135.986 166.798 135.266 166.403 134.362 166.403C133.475 166.403 132.763 166.798 132.226 167.587C131.697 168.369 131.433 169.431 131.433 170.773V172.031ZM144.811 164.792L144.872 166.22C145.71 165.105 146.78 164.548 148.083 164.548C150.418 164.548 151.602 166.106 151.635 169.223V178H149.486V169.321C149.486 168.287 149.311 167.555 148.961 167.124C148.62 166.684 148.103 166.464 147.411 166.464C146.874 166.464 146.39 166.643 145.958 167.001C145.535 167.36 145.194 167.827 144.933 168.405V178H142.772V164.792H144.811ZM158.214 161.594V164.792H160.204V166.538H158.214V174.729C158.214 175.249 158.299 175.644 158.47 175.913C158.641 176.181 158.934 176.315 159.349 176.315C159.634 176.315 159.923 176.267 160.216 176.169L160.191 178C159.703 178.163 159.203 178.244 158.69 178.244C157.835 178.244 157.184 177.939 156.737 177.329C156.289 176.718 156.065 175.856 156.065 174.741V166.538H154.051V164.792H156.065V161.594H158.214ZM167.283 171.372H162.242V169.528H167.283V171.372ZM174.705 178.244C173.061 178.244 171.799 177.756 170.92 176.779C170.042 175.795 169.594 174.354 169.578 172.458V170.859C169.578 168.889 170.005 167.347 170.859 166.232C171.722 165.109 172.922 164.548 174.46 164.548C176.007 164.548 177.162 165.04 177.927 166.025C178.692 167.01 179.083 168.544 179.099 170.627V172.043H171.726V172.348C171.726 173.764 171.991 174.794 172.52 175.437C173.057 176.079 173.826 176.401 174.827 176.401C175.461 176.401 176.019 176.283 176.499 176.047C176.987 175.803 177.443 175.42 177.866 174.899L178.989 176.267C178.053 177.585 176.625 178.244 174.705 178.244ZM174.46 166.403C173.565 166.403 172.902 166.713 172.471 167.331C172.039 167.941 171.795 168.894 171.738 170.188H176.938V169.895C176.882 168.641 176.654 167.746 176.255 167.209C175.864 166.672 175.266 166.403 174.46 166.403ZM184.238 164.792L184.299 166.22C185.137 165.105 186.207 164.548 187.509 164.548C189.845 164.548 191.029 166.106 191.062 169.223V178H188.913V169.321C188.913 168.287 188.738 167.555 188.388 167.124C188.046 166.684 187.53 166.464 186.838 166.464C186.301 166.464 185.817 166.643 185.385 167.001C184.962 167.36 184.62 167.827 184.36 168.405V178H182.199V164.792H184.238ZM194.357 170.798C194.357 168.763 194.735 167.213 195.492 166.147C196.257 165.081 197.352 164.548 198.776 164.548C200.037 164.548 201.022 165.061 201.73 166.086V159.25H203.891V178H201.913L201.803 176.584C201.095 177.691 200.082 178.244 198.764 178.244C197.396 178.244 196.322 177.715 195.541 176.657C194.768 175.591 194.373 174.09 194.357 172.153V170.798ZM196.518 172.031C196.518 173.512 196.737 174.602 197.177 175.302C197.616 175.994 198.332 176.34 199.325 176.34C200.399 176.34 201.201 175.799 201.73 174.716V168.051C201.177 166.993 200.379 166.464 199.337 166.464C198.345 166.464 197.628 166.814 197.189 167.514C196.75 168.206 196.526 169.272 196.518 170.712V172.031ZM207.857 176.816C207.857 176.425 207.971 176.1 208.199 175.839C208.435 175.579 208.785 175.449 209.249 175.449C209.713 175.449 210.063 175.579 210.299 175.839C210.543 176.1 210.665 176.425 210.665 176.816C210.665 177.19 210.543 177.504 210.299 177.756C210.063 178.008 209.713 178.134 209.249 178.134C208.785 178.134 208.435 178.008 208.199 177.756C207.971 177.504 207.857 177.19 207.857 176.816ZM70.437 227.785H64.1504V234.083H71.4746V236H61.9165V218.227H71.3525V220.155H64.1504V225.868H70.437V227.785ZM76.5767 222.792L76.6377 224.22C77.4759 223.105 78.5461 222.548 79.8481 222.548C82.1838 222.548 83.3678 224.106 83.4004 227.223V236H81.252V227.321C81.252 226.287 81.077 225.555 80.7271 225.124C80.3853 224.684 79.8685 224.464 79.1768 224.464C78.6396 224.464 78.1554 224.643 77.7241 225.001C77.3009 225.36 76.9591 225.827 76.6987 226.405V236H74.5381V222.792H76.5767ZM98.6438 236.244C97 236.244 95.7386 235.756 94.8597 234.779C93.9808 233.795 93.5332 232.354 93.5169 230.458V228.859C93.5169 226.889 93.9441 225.347 94.7986 224.232C95.6613 223.109 96.8616 222.548 98.3997 222.548C99.9459 222.548 101.102 223.04 101.867 224.025C102.631 225.01 103.022 226.544 103.038 228.627V230.043H95.6653V230.348C95.6653 231.764 95.9298 232.794 96.4588 233.437C96.9959 234.079 97.7649 234.401 98.7659 234.401C99.4007 234.401 99.9581 234.283 100.438 234.047C100.927 233.803 101.382 233.42 101.805 232.899L102.929 234.267C101.993 235.585 100.564 236.244 98.6438 236.244ZM98.3997 224.403C97.5045 224.403 96.8413 224.713 96.41 225.331C95.9786 225.941 95.7345 226.894 95.6775 228.188H100.878V227.895C100.821 226.641 100.593 225.746 100.194 225.209C99.8035 224.672 99.2054 224.403 98.3997 224.403ZM112.559 232.619C112.559 232.155 112.384 231.756 112.034 231.422C111.685 231.089 111.009 230.698 110.008 230.25C108.844 229.77 108.022 229.359 107.542 229.018C107.07 228.676 106.716 228.289 106.48 227.858C106.244 227.418 106.126 226.898 106.126 226.295C106.126 225.221 106.517 224.33 107.298 223.622C108.088 222.906 109.093 222.548 110.313 222.548C111.599 222.548 112.633 222.922 113.414 223.671C114.195 224.42 114.586 225.38 114.586 226.552H112.437C112.437 225.958 112.238 225.453 111.839 225.038C111.44 224.615 110.932 224.403 110.313 224.403C109.679 224.403 109.178 224.57 108.812 224.904C108.454 225.229 108.275 225.669 108.275 226.222C108.275 226.662 108.405 227.016 108.665 227.284C108.934 227.553 109.573 227.907 110.582 228.346C112.185 228.973 113.276 229.587 113.853 230.189C114.431 230.784 114.72 231.54 114.72 232.46C114.72 233.607 114.325 234.527 113.536 235.219C112.747 235.902 111.689 236.244 110.362 236.244C108.987 236.244 107.872 235.849 107.017 235.06C106.163 234.271 105.736 233.27 105.736 232.057H107.908C107.933 232.79 108.157 233.363 108.58 233.778C109.003 234.193 109.597 234.401 110.362 234.401C111.078 234.401 111.624 234.242 111.998 233.925C112.372 233.599 112.559 233.164 112.559 232.619ZM120.872 219.594V222.792H122.862V224.538H120.872V232.729C120.872 233.249 120.957 233.644 121.128 233.913C121.299 234.181 121.592 234.315 122.007 234.315C122.292 234.315 122.581 234.267 122.874 234.169L122.849 236C122.361 236.163 121.861 236.244 121.348 236.244C120.493 236.244 119.842 235.939 119.395 235.329C118.947 234.718 118.723 233.856 118.723 232.741V224.538H116.709V222.792H118.723V219.594H120.872ZM132.737 236C132.606 235.715 132.513 235.235 132.456 234.56C131.691 235.683 130.714 236.244 129.526 236.244C128.33 236.244 127.394 235.91 126.719 235.243C126.051 234.568 125.718 233.62 125.718 232.399C125.718 231.056 126.173 229.99 127.085 229.201C127.996 228.411 129.245 228.008 130.832 227.992H132.419V226.588C132.419 225.799 132.244 225.237 131.894 224.904C131.544 224.57 131.011 224.403 130.295 224.403C129.644 224.403 129.115 224.599 128.708 224.989C128.301 225.372 128.098 225.86 128.098 226.454H125.937C125.937 225.779 126.137 225.136 126.535 224.525C126.934 223.907 127.471 223.423 128.147 223.073C128.822 222.723 129.575 222.548 130.405 222.548C131.756 222.548 132.781 222.886 133.481 223.561C134.189 224.228 134.551 225.205 134.568 226.491V233.156C134.576 234.173 134.714 235.056 134.983 235.805V236H132.737ZM129.856 234.279C130.385 234.279 130.889 234.132 131.369 233.839C131.85 233.546 132.2 233.18 132.419 232.741V229.591H131.199C130.173 229.608 129.363 229.84 128.769 230.287C128.175 230.727 127.878 231.345 127.878 232.143C127.878 232.891 128.029 233.437 128.33 233.778C128.631 234.112 129.14 234.279 129.856 234.279ZM154.743 230.031C154.743 232.122 154.364 233.681 153.608 234.706C152.859 235.731 151.797 236.244 150.421 236.244C149.095 236.244 148.074 235.744 147.358 234.743V241.078H145.209V222.792H147.162L147.272 224.257C147.996 223.118 149.034 222.548 150.385 222.548C151.833 222.548 152.916 223.052 153.632 224.062C154.348 225.071 154.718 226.58 154.743 228.59V230.031ZM152.594 228.798C152.594 227.317 152.366 226.226 151.911 225.526C151.455 224.818 150.723 224.464 149.713 224.464C148.68 224.464 147.895 224.981 147.358 226.015V232.887C147.886 233.896 148.68 234.401 149.738 234.401C150.714 234.401 151.431 234.051 151.886 233.351C152.35 232.643 152.586 231.565 152.594 230.116V228.798ZM164.825 236C164.695 235.715 164.601 235.235 164.545 234.56C163.78 235.683 162.803 236.244 161.615 236.244C160.419 236.244 159.483 235.91 158.807 235.243C158.14 234.568 157.806 233.62 157.806 232.399C157.806 231.056 158.262 229.99 159.173 229.201C160.085 228.411 161.334 228.008 162.921 227.992H164.508V226.588C164.508 225.799 164.333 225.237 163.983 224.904C163.633 224.57 163.1 224.403 162.384 224.403C161.733 224.403 161.204 224.599 160.797 224.989C160.39 225.372 160.187 225.86 160.187 226.454H158.026C158.026 225.779 158.225 225.136 158.624 224.525C159.023 223.907 159.56 223.423 160.235 223.073C160.911 222.723 161.664 222.548 162.494 222.548C163.845 222.548 164.87 222.886 165.57 223.561C166.278 224.228 166.64 225.205 166.656 226.491V233.156C166.664 234.173 166.803 235.056 167.071 235.805V236H164.825ZM161.944 234.279C162.473 234.279 162.978 234.132 163.458 233.839C163.938 233.546 164.288 233.18 164.508 232.741V229.591H163.287C162.262 229.608 161.452 229.84 160.858 230.287C160.264 230.727 159.967 231.345 159.967 232.143C159.967 232.891 160.117 233.437 160.419 233.778C160.72 234.112 161.228 234.279 161.944 234.279ZM163.739 217.25H166.473L163.202 220.839H161.383L163.739 217.25ZM170.086 228.798C170.086 226.739 170.46 225.185 171.209 224.135C171.958 223.077 173.052 222.548 174.493 222.548C175.836 222.548 176.857 223.122 177.557 224.269L177.667 222.792H179.62V236.122C179.62 237.758 179.201 239.011 178.362 239.882C177.524 240.761 176.356 241.2 174.859 241.2C174.208 241.2 173.476 241.037 172.662 240.712C171.856 240.395 171.25 240 170.843 239.528L171.722 238.039C172.617 238.917 173.606 239.357 174.688 239.357C176.487 239.357 177.41 238.376 177.459 236.415V234.694C176.759 235.727 175.766 236.244 174.481 236.244C173.113 236.244 172.047 235.731 171.282 234.706C170.517 233.673 170.119 232.191 170.086 230.263V228.798ZM172.247 230.031C172.247 231.512 172.462 232.602 172.894 233.302C173.333 233.994 174.049 234.34 175.042 234.34C176.116 234.34 176.922 233.791 177.459 232.692V226.088C176.898 225.006 176.1 224.464 175.067 224.464C174.074 224.464 173.358 224.814 172.918 225.514C172.479 226.206 172.255 227.272 172.247 228.712V230.031ZM185.674 236H183.513V222.792H185.674V236ZM185.845 219.289C185.845 219.655 185.743 219.96 185.54 220.204C185.336 220.448 185.027 220.57 184.612 220.57C184.205 220.57 183.9 220.448 183.696 220.204C183.493 219.96 183.391 219.655 183.391 219.289C183.391 218.922 183.493 218.613 183.696 218.361C183.9 218.109 184.205 217.982 184.612 217.982C185.019 217.982 185.324 218.113 185.527 218.373C185.739 218.625 185.845 218.931 185.845 219.289ZM191.618 222.792L191.679 224.22C192.518 223.105 193.588 222.548 194.89 222.548C197.225 222.548 198.409 224.106 198.442 227.223V236H196.294V227.321C196.294 226.287 196.119 225.555 195.769 225.124C195.427 224.684 194.91 224.464 194.218 224.464C193.681 224.464 193.197 224.643 192.766 225.001C192.343 225.36 192.001 225.827 191.74 226.405V236H189.58V222.792H191.618ZM208.988 236C208.858 235.715 208.765 235.235 208.708 234.56C207.943 235.683 206.966 236.244 205.778 236.244C204.582 236.244 203.646 235.91 202.97 235.243C202.303 234.568 201.969 233.62 201.969 232.399C201.969 231.056 202.425 229.99 203.337 229.201C204.248 228.411 205.497 228.008 207.084 227.992H208.671V226.588C208.671 225.799 208.496 225.237 208.146 224.904C207.796 224.57 207.263 224.403 206.547 224.403C205.896 224.403 205.367 224.599 204.96 224.989C204.553 225.372 204.35 225.86 204.35 226.454H202.189C202.189 225.779 202.388 225.136 202.787 224.525C203.186 223.907 203.723 223.423 204.399 223.073C205.074 222.723 205.827 222.548 206.657 222.548C208.008 222.548 209.033 222.886 209.733 223.561C210.441 224.228 210.803 225.205 210.819 226.491V233.156C210.828 234.173 210.966 235.056 211.234 235.805V236H208.988ZM206.108 234.279C206.636 234.279 207.141 234.132 207.621 233.839C208.101 233.546 208.451 233.18 208.671 232.741V229.591H207.45C206.425 229.608 205.615 229.84 205.021 230.287C204.427 230.727 204.13 231.345 204.13 232.143C204.13 232.891 204.281 233.437 204.582 233.778C204.883 234.112 205.391 234.279 206.108 234.279ZM230.995 230.031C230.995 232.122 230.616 233.681 229.859 234.706C229.111 235.731 228.049 236.244 226.673 236.244C225.347 236.244 224.325 235.744 223.609 234.743V241.078H221.461V222.792H223.414L223.524 224.257C224.248 223.118 225.286 222.548 226.637 222.548C228.085 222.548 229.168 223.052 229.884 224.062C230.6 225.071 230.97 226.58 230.995 228.59V230.031ZM228.846 228.798C228.846 227.317 228.618 226.226 228.163 225.526C227.707 224.818 226.974 224.464 225.965 224.464C224.932 224.464 224.146 224.981 223.609 226.015V232.887C224.138 233.896 224.932 234.401 225.99 234.401C226.966 234.401 227.682 234.051 228.138 233.351C228.602 232.643 228.838 231.565 228.846 230.116V228.798ZM233.826 228.786C233.826 226.865 234.29 225.347 235.218 224.232C236.154 223.109 237.386 222.548 238.916 222.548C240.446 222.548 241.675 223.093 242.603 224.184C243.539 225.274 244.019 226.759 244.043 228.639V230.031C244.043 231.943 243.579 233.457 242.652 234.572C241.724 235.687 240.487 236.244 238.941 236.244C237.411 236.244 236.182 235.703 235.254 234.621C234.335 233.538 233.859 232.073 233.826 230.226V228.786ZM235.987 230.031C235.987 231.39 236.251 232.46 236.78 233.241C237.317 234.014 238.038 234.401 238.941 234.401C240.845 234.401 241.826 233.026 241.883 230.275V228.786C241.883 227.435 241.614 226.369 241.077 225.587C240.54 224.798 239.82 224.403 238.916 224.403C238.029 224.403 237.317 224.798 236.78 225.587C236.251 226.369 235.987 227.431 235.987 228.773V230.031ZM246.875 228.798C246.875 226.763 247.253 225.213 248.01 224.147C248.775 223.081 249.87 222.548 251.294 222.548C252.555 222.548 253.54 223.061 254.248 224.086V217.25H256.409V236H254.431L254.321 234.584C253.613 235.691 252.6 236.244 251.282 236.244C249.914 236.244 248.84 235.715 248.059 234.657C247.286 233.591 246.891 232.09 246.875 230.153V228.798ZM249.036 230.031C249.036 231.512 249.255 232.602 249.695 233.302C250.134 233.994 250.85 234.34 251.843 234.34C252.917 234.34 253.719 233.799 254.248 232.716V226.051C253.695 224.993 252.897 224.464 251.855 224.464C250.863 224.464 250.146 224.814 249.707 225.514C249.267 226.206 249.044 227.272 249.036 228.712V230.031ZM265.685 224.818C265.384 224.761 265.059 224.733 264.709 224.733C263.602 224.733 262.829 225.339 262.39 226.552V236H260.229V222.792H262.329L262.365 224.135C262.943 223.077 263.761 222.548 264.819 222.548C265.161 222.548 265.445 222.605 265.673 222.719L265.685 224.818ZM274.657 236C274.527 235.715 274.433 235.235 274.376 234.56C273.611 235.683 272.635 236.244 271.447 236.244C270.25 236.244 269.315 235.91 268.639 235.243C267.972 234.568 267.638 233.62 267.638 232.399C267.638 231.056 268.094 229.99 269.005 229.201C269.917 228.411 271.166 228.008 272.753 227.992H274.34V226.588C274.34 225.799 274.165 225.237 273.815 224.904C273.465 224.57 272.932 224.403 272.216 224.403C271.565 224.403 271.036 224.599 270.629 224.989C270.222 225.372 270.018 225.86 270.018 226.454H267.858C267.858 225.779 268.057 225.136 268.456 224.525C268.855 223.907 269.392 223.423 270.067 223.073C270.743 222.723 271.496 222.548 272.326 222.548C273.677 222.548 274.702 222.886 275.402 223.561C276.11 224.228 276.472 225.205 276.488 226.491V233.156C276.496 234.173 276.635 235.056 276.903 235.805V236H274.657ZM271.776 234.279C272.305 234.279 272.81 234.132 273.29 233.839C273.77 233.546 274.12 233.18 274.34 232.741V229.591H273.119C272.094 229.608 271.284 229.84 270.69 230.287C270.096 230.727 269.799 231.345 269.799 232.143C269.799 232.891 269.949 233.437 270.25 233.778C270.552 234.112 271.06 234.279 271.776 234.279ZM273.571 217.25H276.305L273.034 220.839H271.215L273.571 217.25ZM286.766 232.619C286.766 232.155 286.591 231.756 286.241 231.422C285.891 231.089 285.216 230.698 284.215 230.25C283.051 229.77 282.229 229.359 281.749 229.018C281.277 228.676 280.923 228.289 280.687 227.858C280.451 227.418 280.333 226.898 280.333 226.295C280.333 225.221 280.724 224.33 281.505 223.622C282.294 222.906 283.299 222.548 284.52 222.548C285.806 222.548 286.839 222.922 287.621 223.671C288.402 224.42 288.792 225.38 288.792 226.552H286.644C286.644 225.958 286.445 225.453 286.046 225.038C285.647 224.615 285.138 224.403 284.52 224.403C283.885 224.403 283.385 224.57 283.018 224.904C282.66 225.229 282.481 225.669 282.481 226.222C282.481 226.662 282.612 227.016 282.872 227.284C283.141 227.553 283.779 227.907 284.788 228.346C286.392 228.973 287.482 229.587 288.06 230.189C288.638 230.784 288.927 231.54 288.927 232.46C288.927 233.607 288.532 234.527 287.743 235.219C286.953 235.902 285.895 236.244 284.569 236.244C283.193 236.244 282.079 235.849 281.224 235.06C280.37 234.271 279.942 233.27 279.942 232.057H282.115C282.14 232.79 282.363 233.363 282.787 233.778C283.21 234.193 283.804 234.401 284.569 234.401C285.285 234.401 285.83 234.242 286.204 233.925C286.579 233.599 286.766 233.164 286.766 232.619ZM302.766 232.716L305.269 222.792H307.466L303.548 236H301.936L297.969 222.792H300.166L302.766 232.716ZM314.765 236.244C313.121 236.244 311.86 235.756 310.981 234.779C310.102 233.795 309.655 232.354 309.638 230.458V228.859C309.638 226.889 310.066 225.347 310.92 224.232C311.783 223.109 312.983 222.548 314.521 222.548C316.067 222.548 317.223 223.04 317.988 224.025C318.753 225.01 319.144 226.544 319.16 228.627V230.043H311.787V230.348C311.787 231.764 312.051 232.794 312.58 233.437C313.117 234.079 313.886 234.401 314.887 234.401C315.522 234.401 316.08 234.283 316.56 234.047C317.048 233.803 317.504 233.42 317.927 232.899L319.05 234.267C318.114 235.585 316.686 236.244 314.765 236.244ZM314.521 224.403C313.626 224.403 312.963 224.713 312.531 225.331C312.1 225.941 311.856 226.894 311.799 228.188H316.999V227.895C316.942 226.641 316.714 225.746 316.316 225.209C315.925 224.672 315.327 224.403 314.521 224.403ZM327.716 224.818C327.415 224.761 327.09 224.733 326.74 224.733C325.633 224.733 324.86 225.339 324.421 226.552V236H322.26V222.792H324.36L324.396 224.135C324.974 223.077 325.792 222.548 326.85 222.548C327.192 222.548 327.476 222.605 327.704 222.719L327.716 224.818ZM339.188 222.792L339.237 224.013C340.042 223.036 341.104 222.548 342.423 222.548C343.896 222.548 344.925 223.187 345.511 224.464C346.341 223.187 347.497 222.548 348.978 222.548C351.411 222.548 352.656 224.066 352.713 227.101V236H350.565V227.309C350.565 226.348 350.394 225.636 350.052 225.172C349.71 224.7 349.133 224.464 348.319 224.464C347.668 224.464 347.139 224.717 346.732 225.221C346.325 225.726 346.089 226.369 346.024 227.15V236H343.851V227.211C343.827 225.38 343.082 224.464 341.617 224.464C340.527 224.464 339.758 225.01 339.31 226.1V236H337.162V222.792H339.188ZM358.804 236H356.644V222.792H358.804V236ZM358.975 219.289C358.975 219.655 358.873 219.96 358.67 220.204C358.466 220.448 358.157 220.57 357.742 220.57C357.335 220.57 357.03 220.448 356.827 220.204C356.623 219.96 356.521 219.655 356.521 219.289C356.521 218.922 356.623 218.613 356.827 218.361C357.03 218.109 357.335 217.982 357.742 217.982C358.149 217.982 358.454 218.113 358.658 218.373C358.869 218.625 358.975 218.931 358.975 219.289ZM369.131 232.619C369.131 232.155 368.956 231.756 368.606 231.422C368.256 231.089 367.581 230.698 366.58 230.25C365.416 229.77 364.594 229.359 364.114 229.018C363.642 228.676 363.288 228.289 363.052 227.858C362.816 227.418 362.698 226.898 362.698 226.295C362.698 225.221 363.088 224.33 363.87 223.622C364.659 222.906 365.664 222.548 366.885 222.548C368.171 222.548 369.204 222.922 369.985 223.671C370.767 224.42 371.157 225.38 371.157 226.552H369.009C369.009 225.958 368.809 225.453 368.411 225.038C368.012 224.615 367.503 224.403 366.885 224.403C366.25 224.403 365.75 224.57 365.383 224.904C365.025 225.229 364.846 225.669 364.846 226.222C364.846 226.662 364.976 227.016 365.237 227.284C365.505 227.553 366.144 227.907 367.153 228.346C368.757 228.973 369.847 229.587 370.425 230.189C371.003 230.784 371.292 231.54 371.292 232.46C371.292 233.607 370.897 234.527 370.107 235.219C369.318 235.902 368.26 236.244 366.934 236.244C365.558 236.244 364.443 235.849 363.589 235.06C362.734 234.271 362.307 233.27 362.307 232.057H364.48C364.504 232.79 364.728 233.363 365.151 233.778C365.575 234.193 366.169 234.401 366.934 234.401C367.65 234.401 368.195 234.242 368.569 233.925C368.944 233.599 369.131 233.164 369.131 232.619ZM71.1572 259.031C71.1572 261.122 70.7788 262.681 70.022 263.706C69.2733 264.731 68.2113 265.244 66.8359 265.244C65.5094 265.244 64.4881 264.744 63.772 263.743V270.078H61.6235V251.792H63.5767L63.6865 253.257C64.4108 252.118 65.4484 251.548 66.7993 251.548C68.2479 251.548 69.3302 252.052 70.0464 253.062C70.7625 254.071 71.1328 255.58 71.1572 257.59V259.031ZM69.0088 257.798C69.0088 256.317 68.7809 255.226 68.3252 254.526C67.8695 253.818 67.137 253.464 66.1279 253.464C65.0944 253.464 64.3091 253.981 63.772 255.015V261.887C64.3009 262.896 65.0944 263.401 66.1523 263.401C67.1289 263.401 67.8451 263.051 68.3008 262.351C68.7646 261.643 69.0007 260.565 69.0088 259.116V257.798ZM79.897 253.818C79.5959 253.761 79.2703 253.733 78.9204 253.733C77.8136 253.733 77.0405 254.339 76.6011 255.552V265H74.4404V251.792H76.54L76.5767 253.135C77.1545 252.077 77.9723 251.548 79.0303 251.548C79.3721 251.548 79.6569 251.605 79.8848 251.719L79.897 253.818ZM81.8618 257.786C81.8618 255.865 82.3257 254.347 83.2534 253.232C84.1893 252.109 85.4222 251.548 86.9521 251.548C88.4821 251.548 89.7109 252.093 90.6387 253.184C91.5745 254.274 92.0547 255.759 92.0791 257.639V259.031C92.0791 260.943 91.6152 262.457 90.6875 263.572C89.7598 264.687 88.5228 265.244 86.9766 265.244C85.4466 265.244 84.2178 264.703 83.29 263.621C82.3704 262.538 81.8944 261.073 81.8618 259.226V257.786ZM84.0225 259.031C84.0225 260.39 84.2869 261.46 84.8159 262.241C85.353 263.014 86.0732 263.401 86.9766 263.401C88.8809 263.401 89.8615 262.026 89.9185 259.275V257.786C89.9185 256.435 89.6499 255.369 89.1128 254.587C88.5757 253.798 87.8555 253.403 86.9521 253.403C86.0651 253.403 85.353 253.798 84.8159 254.587C84.2869 255.369 84.0225 256.431 84.0225 257.773V259.031ZM98.7803 261.411L101.185 251.792H103.48L99.1587 266.868C98.8332 267.999 98.3734 268.857 97.7793 269.443C97.1852 270.037 96.5098 270.334 95.7529 270.334C95.46 270.334 95.0856 270.269 94.6299 270.139V268.308L95.106 268.357C95.7326 268.357 96.2209 268.206 96.5708 267.905C96.9289 267.612 97.2178 267.1 97.4375 266.367L97.8647 264.89L93.9829 251.792H96.3389L98.7803 261.411ZM110.645 265.244C109.001 265.244 107.74 264.756 106.861 263.779C105.982 262.795 105.534 261.354 105.518 259.458V257.859C105.518 255.889 105.945 254.347 106.8 253.232C107.662 252.109 108.863 251.548 110.401 251.548C111.947 251.548 113.103 252.04 113.868 253.025C114.633 254.01 115.023 255.544 115.04 257.627V259.043H107.667V259.348C107.667 260.764 107.931 261.794 108.46 262.437C108.997 263.079 109.766 263.401 110.767 263.401C111.402 263.401 111.959 263.283 112.439 263.047C112.928 262.803 113.383 262.42 113.807 261.899L114.93 263.267C113.994 264.585 112.566 265.244 110.645 265.244ZM110.401 253.403C109.506 253.403 108.842 253.713 108.411 254.331C107.98 254.941 107.736 255.894 107.679 257.188H112.879V256.895C112.822 255.641 112.594 254.746 112.195 254.209C111.805 253.672 111.207 253.403 110.401 253.403ZM122.729 263.401C123.446 263.401 124.019 263.181 124.451 262.742C124.882 262.294 125.118 261.659 125.159 260.837H127.197C127.148 262.107 126.697 263.161 125.842 263.999C124.996 264.829 123.958 265.244 122.729 265.244C121.094 265.244 119.845 264.731 118.982 263.706C118.127 262.673 117.7 261.139 117.7 259.104V257.651C117.7 255.658 118.127 254.144 118.982 253.11C119.836 252.069 121.082 251.548 122.717 251.548C124.068 251.548 125.138 251.975 125.928 252.83C126.725 253.684 127.148 254.852 127.197 256.333H125.159C125.11 255.356 124.874 254.624 124.451 254.136C124.036 253.647 123.458 253.403 122.717 253.403C121.757 253.403 121.045 253.721 120.581 254.355C120.117 254.982 119.877 256.016 119.861 257.456V259.141C119.861 260.695 120.089 261.794 120.544 262.437C121.008 263.079 121.737 263.401 122.729 263.401ZM133.02 248.594V251.792H135.009V253.538H133.02V261.729C133.02 262.249 133.105 262.644 133.276 262.913C133.447 263.181 133.74 263.315 134.155 263.315C134.44 263.315 134.729 263.267 135.021 263.169L134.997 265C134.509 265.163 134.008 265.244 133.496 265.244C132.641 265.244 131.99 264.939 131.542 264.329C131.095 263.718 130.871 262.856 130.871 261.741V253.538H128.857V251.792H130.871V248.594H133.02ZM137.389 257.786C137.389 255.865 137.853 254.347 138.781 253.232C139.717 252.109 140.95 251.548 142.479 251.548C144.009 251.548 145.238 252.093 146.166 253.184C147.102 254.274 147.582 255.759 147.606 257.639V259.031C147.606 260.943 147.143 262.457 146.215 263.572C145.287 264.687 144.05 265.244 142.504 265.244C140.974 265.244 139.745 264.703 138.817 263.621C137.898 262.538 137.422 261.073 137.389 259.226V257.786ZM139.55 259.031C139.55 260.39 139.814 261.46 140.343 262.241C140.88 263.014 141.601 263.401 142.504 263.401C144.408 263.401 145.389 262.026 145.446 259.275V257.786C145.446 256.435 145.177 255.369 144.64 254.587C144.103 253.798 143.383 253.403 142.479 253.403C141.592 253.403 140.88 253.798 140.343 254.587C139.814 255.369 139.55 256.431 139.55 257.773V259.031ZM157.311 261.619C157.311 261.155 157.136 260.756 156.786 260.422C156.436 260.089 155.76 259.698 154.759 259.25C153.596 258.77 152.774 258.359 152.293 258.018C151.821 257.676 151.467 257.289 151.231 256.858C150.995 256.418 150.877 255.898 150.877 255.295C150.877 254.221 151.268 253.33 152.049 252.622C152.839 251.906 153.844 251.548 155.064 251.548C156.35 251.548 157.384 251.922 158.165 252.671C158.946 253.42 159.337 254.38 159.337 255.552H157.188C157.188 254.958 156.989 254.453 156.59 254.038C156.192 253.615 155.683 253.403 155.064 253.403C154.43 253.403 153.929 253.57 153.563 253.904C153.205 254.229 153.026 254.669 153.026 255.222C153.026 255.662 153.156 256.016 153.417 256.284C153.685 256.553 154.324 256.907 155.333 257.346C156.936 257.973 158.027 258.587 158.604 259.189C159.182 259.784 159.471 260.54 159.471 261.46C159.471 262.607 159.076 263.527 158.287 264.219C157.498 264.902 156.44 265.244 155.113 265.244C153.738 265.244 152.623 264.849 151.769 264.06C150.914 263.271 150.487 262.27 150.487 261.057H152.66C152.684 261.79 152.908 262.363 153.331 262.778C153.754 263.193 154.348 263.401 155.113 263.401C155.829 263.401 156.375 263.242 156.749 262.925C157.123 262.599 157.311 262.164 157.311 261.619ZM162.815 268.54L161.534 267.661C162.299 266.595 162.697 265.496 162.73 264.365V262.327H164.939V264.097C164.939 264.919 164.736 265.741 164.329 266.562C163.93 267.384 163.426 268.044 162.815 268.54ZM181.226 257.798C181.226 255.763 181.604 254.213 182.361 253.147C183.126 252.081 184.221 251.548 185.645 251.548C186.906 251.548 187.891 252.061 188.599 253.086V246.25H190.76V265H188.782L188.672 263.584C187.964 264.691 186.951 265.244 185.633 265.244C184.265 265.244 183.191 264.715 182.41 263.657C181.637 262.591 181.242 261.09 181.226 259.153V257.798ZM183.386 259.031C183.386 260.512 183.606 261.602 184.046 262.302C184.485 262.994 185.201 263.34 186.194 263.34C187.268 263.34 188.07 262.799 188.599 261.716V255.051C188.045 253.993 187.248 253.464 186.206 253.464C185.213 253.464 184.497 253.814 184.058 254.514C183.618 255.206 183.395 256.272 183.386 257.712V259.031ZM201.379 265C201.249 264.715 201.155 264.235 201.098 263.56C200.333 264.683 199.357 265.244 198.169 265.244C196.972 265.244 196.037 264.91 195.361 264.243C194.694 263.568 194.36 262.62 194.36 261.399C194.36 260.056 194.816 258.99 195.727 258.201C196.639 257.411 197.888 257.008 199.475 256.992H201.062V255.588C201.062 254.799 200.887 254.237 200.537 253.904C200.187 253.57 199.654 253.403 198.938 253.403C198.287 253.403 197.758 253.599 197.351 253.989C196.944 254.372 196.74 254.86 196.74 255.454H194.58C194.58 254.779 194.779 254.136 195.178 253.525C195.577 252.907 196.114 252.423 196.789 252.073C197.465 251.723 198.218 251.548 199.048 251.548C200.399 251.548 201.424 251.886 202.124 252.561C202.832 253.228 203.194 254.205 203.21 255.491V262.156C203.218 263.173 203.357 264.056 203.625 264.805V265H201.379ZM198.498 263.279C199.027 263.279 199.532 263.132 200.012 262.839C200.492 262.546 200.842 262.18 201.062 261.741V258.591H199.841C198.816 258.608 198.006 258.84 197.412 259.287C196.818 259.727 196.521 260.345 196.521 261.143C196.521 261.891 196.671 262.437 196.972 262.778C197.274 263.112 197.782 263.279 198.498 263.279ZM209.899 248.594V251.792H211.889V253.538H209.899V261.729C209.899 262.249 209.985 262.644 210.156 262.913C210.326 263.181 210.619 263.315 211.034 263.315C211.319 263.315 211.608 263.267 211.901 263.169L211.877 265C211.388 265.163 210.888 265.244 210.375 265.244C209.521 265.244 208.87 264.939 208.422 264.329C207.975 263.718 207.751 262.856 207.751 261.741V253.538H205.737V251.792H207.751V248.594H209.899ZM214.269 257.786C214.269 255.865 214.733 254.347 215.66 253.232C216.596 252.109 217.829 251.548 219.359 251.548C220.889 251.548 222.118 252.093 223.046 253.184C223.982 254.274 224.462 255.759 224.486 257.639V259.031C224.486 260.943 224.022 262.457 223.094 263.572C222.167 264.687 220.93 265.244 219.384 265.244C217.854 265.244 216.625 264.703 215.697 263.621C214.777 262.538 214.301 261.073 214.269 259.226V257.786ZM216.429 259.031C216.429 260.39 216.694 261.46 217.223 262.241C217.76 263.014 218.48 263.401 219.384 263.401C221.288 263.401 222.268 262.026 222.325 259.275V257.786C222.325 256.435 222.057 255.369 221.52 254.587C220.983 253.798 220.262 253.403 219.359 253.403C218.472 253.403 217.76 253.798 217.223 254.587C216.694 255.369 216.429 256.431 216.429 257.773V259.031ZM234.19 261.619C234.19 261.155 234.015 260.756 233.665 260.422C233.315 260.089 232.64 259.698 231.639 259.25C230.475 258.77 229.653 258.359 229.173 258.018C228.701 257.676 228.347 257.289 228.111 256.858C227.875 256.418 227.757 255.898 227.757 255.295C227.757 254.221 228.148 253.33 228.929 252.622C229.718 251.906 230.723 251.548 231.944 251.548C233.23 251.548 234.263 251.922 235.045 252.671C235.826 253.42 236.217 254.38 236.217 255.552H234.068C234.068 254.958 233.869 254.453 233.47 254.038C233.071 253.615 232.563 253.403 231.944 253.403C231.309 253.403 230.809 253.57 230.443 253.904C230.085 254.229 229.906 254.669 229.906 255.222C229.906 255.662 230.036 256.016 230.296 256.284C230.565 256.553 231.204 256.907 232.213 257.346C233.816 257.973 234.906 258.587 235.484 259.189C236.062 259.784 236.351 260.54 236.351 261.46C236.351 262.607 235.956 263.527 235.167 264.219C234.377 264.902 233.319 265.244 231.993 265.244C230.618 265.244 229.503 264.849 228.648 264.06C227.794 263.271 227.366 262.27 227.366 261.057H229.539C229.564 261.79 229.788 262.363 230.211 262.778C230.634 263.193 231.228 263.401 231.993 263.401C232.709 263.401 233.254 263.242 233.629 262.925C234.003 262.599 234.19 262.164 234.19 261.619ZM259.571 261.619C259.571 261.155 259.396 260.756 259.046 260.422C258.696 260.089 258.021 259.698 257.02 259.25C255.856 258.77 255.034 258.359 254.554 258.018C254.082 257.676 253.728 257.289 253.492 256.858C253.256 256.418 253.138 255.898 253.138 255.295C253.138 254.221 253.528 253.33 254.31 252.622C255.099 251.906 256.104 251.548 257.325 251.548C258.611 251.548 259.644 251.922 260.425 252.671C261.207 253.42 261.597 254.38 261.597 255.552H259.449C259.449 254.958 259.249 254.453 258.851 254.038C258.452 253.615 257.943 253.403 257.325 253.403C256.69 253.403 256.189 253.57 255.823 253.904C255.465 254.229 255.286 254.669 255.286 255.222C255.286 255.662 255.416 256.016 255.677 256.284C255.945 256.553 256.584 256.907 257.593 257.346C259.196 257.973 260.287 258.587 260.865 259.189C261.443 259.784 261.731 260.54 261.731 261.46C261.731 262.607 261.337 263.527 260.547 264.219C259.758 264.902 258.7 265.244 257.374 265.244C255.998 265.244 254.883 264.849 254.029 264.06C253.174 263.271 252.747 262.27 252.747 261.057H254.92C254.944 261.79 255.168 262.363 255.591 262.778C256.014 263.193 256.609 263.401 257.374 263.401C258.09 263.401 258.635 263.242 259.009 262.925C259.384 262.599 259.571 262.164 259.571 261.619ZM264.6 257.786C264.6 255.865 265.063 254.347 265.991 253.232C266.927 252.109 268.16 251.548 269.69 251.548C271.22 251.548 272.449 252.093 273.376 253.184C274.312 254.274 274.792 255.759 274.817 257.639V259.031C274.817 260.943 274.353 262.457 273.425 263.572C272.498 264.687 271.261 265.244 269.714 265.244C268.184 265.244 266.956 264.703 266.028 263.621C265.108 262.538 264.632 261.073 264.6 259.226V257.786ZM266.76 259.031C266.76 260.39 267.025 261.46 267.554 262.241C268.091 263.014 268.811 263.401 269.714 263.401C271.619 263.401 272.599 262.026 272.656 259.275V257.786C272.656 256.435 272.388 255.369 271.851 254.587C271.313 253.798 270.593 253.403 269.69 253.403C268.803 253.403 268.091 253.798 267.554 254.587C267.025 255.369 266.76 256.431 266.76 257.773V259.031ZM287.67 259.031C287.67 261.09 287.3 262.64 286.56 263.682C285.819 264.723 284.745 265.244 283.337 265.244C281.937 265.244 280.887 264.642 280.188 263.438L280.078 265H278.112V246.25H280.261V253.245C280.969 252.113 281.986 251.548 283.312 251.548C284.761 251.548 285.847 252.061 286.572 253.086C287.296 254.111 287.662 255.658 287.67 257.725V259.031ZM285.522 257.798C285.522 256.235 285.302 255.125 284.863 254.465C284.431 253.798 283.728 253.464 282.751 253.464C281.636 253.464 280.806 254.067 280.261 255.271V261.558C280.798 262.746 281.636 263.34 282.775 263.34C283.752 263.34 284.452 262.998 284.875 262.314C285.298 261.631 285.514 260.569 285.522 259.128V257.798ZM296.386 253.818C296.085 253.761 295.759 253.733 295.409 253.733C294.302 253.733 293.529 254.339 293.09 255.552V265H290.929V251.792H293.029L293.065 253.135C293.643 252.077 294.461 251.548 295.519 251.548C295.861 251.548 296.146 251.605 296.374 251.719L296.386 253.818ZM303.526 265.244C301.882 265.244 300.621 264.756 299.742 263.779C298.863 262.795 298.416 261.354 298.399 259.458V257.859C298.399 255.889 298.827 254.347 299.681 253.232C300.544 252.109 301.744 251.548 303.282 251.548C304.828 251.548 305.984 252.04 306.749 253.025C307.514 254.01 307.905 255.544 307.921 257.627V259.043H300.548V259.348C300.548 260.764 300.812 261.794 301.341 262.437C301.878 263.079 302.647 263.401 303.648 263.401C304.283 263.401 304.841 263.283 305.321 263.047C305.809 262.803 306.265 262.42 306.688 261.899L307.811 263.267C306.875 264.585 305.447 265.244 303.526 265.244ZM303.282 253.403C302.387 253.403 301.724 253.713 301.292 254.331C300.861 254.941 300.617 255.894 300.56 257.188H305.76V256.895C305.703 255.641 305.475 254.746 305.077 254.209C304.686 253.672 304.088 253.403 303.282 253.403ZM326.539 251.792L326.588 253.013C327.393 252.036 328.455 251.548 329.774 251.548C331.247 251.548 332.276 252.187 332.862 253.464C333.692 252.187 334.848 251.548 336.329 251.548C338.762 251.548 340.007 253.066 340.064 256.101V265H337.916V256.309C337.916 255.348 337.745 254.636 337.403 254.172C337.061 253.7 336.483 253.464 335.67 253.464C335.019 253.464 334.49 253.717 334.083 254.221C333.676 254.726 333.44 255.369 333.375 256.15V265H331.202V256.211C331.177 254.38 330.433 253.464 328.968 253.464C327.878 253.464 327.108 254.01 326.661 255.1V265H324.512V251.792H326.539ZM346.155 265H343.994V251.792H346.155V265ZM346.24 246.262H348.975L345.703 249.851H343.885L346.24 246.262ZM367.3 261.411L369.705 251.792H372L367.678 266.868C367.353 267.999 366.893 268.857 366.299 269.443C365.705 270.037 365.029 270.334 364.272 270.334C363.979 270.334 363.605 270.269 363.149 270.139V268.308L363.625 268.357C364.252 268.357 364.74 268.206 365.09 267.905C365.448 267.612 365.737 267.1 365.957 266.367L366.384 264.89L362.502 251.792H364.858L367.3 261.411ZM63.6499 280.792L63.6987 282.013C64.5044 281.036 65.5664 280.548 66.8848 280.548C68.3577 280.548 69.3872 281.187 69.9731 282.464C70.8032 281.187 71.9588 280.548 73.4399 280.548C75.8732 280.548 77.1183 282.066 77.1753 285.101V294H75.0269V285.309C75.0269 284.348 74.856 283.636 74.5142 283.172C74.1724 282.7 73.5946 282.464 72.7808 282.464C72.1297 282.464 71.6007 282.717 71.1938 283.221C70.7869 283.726 70.5509 284.369 70.4858 285.15V294H68.313V285.211C68.2886 283.38 67.5439 282.464 66.0791 282.464C64.9886 282.464 64.2196 283.01 63.772 284.1V294H61.6235V280.792H63.6499ZM83.2661 294H81.1055V280.792H83.2661V294ZM83.437 277.289C83.437 277.655 83.3353 277.96 83.1318 278.204C82.9284 278.448 82.6191 278.57 82.2041 278.57C81.7972 278.57 81.492 278.448 81.2886 278.204C81.0851 277.96 80.9834 277.655 80.9834 277.289C80.9834 276.922 81.0851 276.613 81.2886 276.361C81.492 276.109 81.7972 275.982 82.2041 275.982C82.611 275.982 82.9162 276.113 83.1196 276.373C83.3312 276.625 83.437 276.931 83.437 277.289ZM95.7407 294H93.5801V280.792H95.7407V294ZM95.9116 277.289C95.9116 277.655 95.8099 277.96 95.6064 278.204C95.403 278.448 95.0938 278.57 94.6787 278.57C94.2718 278.57 93.9666 278.448 93.7632 278.204C93.5597 277.96 93.458 277.655 93.458 277.289C93.458 276.922 93.5597 276.613 93.7632 276.361C93.9666 276.109 94.2718 275.982 94.6787 275.982C95.0856 275.982 95.3908 276.113 95.5942 276.373C95.8058 276.625 95.9116 276.931 95.9116 277.289ZM101.685 280.792L101.746 282.22C102.584 281.105 103.654 280.548 104.957 280.548C107.292 280.548 108.476 282.106 108.509 285.223V294H106.36V285.321C106.36 284.287 106.185 283.555 105.835 283.124C105.494 282.684 104.977 282.464 104.285 282.464C103.748 282.464 103.264 282.643 102.833 283.001C102.409 283.36 102.068 283.827 101.807 284.405V294H99.6465V280.792H101.685ZM113.208 294V282.538H111.487V280.792H113.208V279.266C113.232 277.923 113.57 276.878 114.221 276.129C114.88 275.372 115.808 274.994 117.004 274.994C117.436 274.994 117.871 275.063 118.311 275.201L118.201 277.032C117.891 276.959 117.562 276.922 117.212 276.922C115.983 276.922 115.369 277.797 115.369 279.547V280.792H117.627V282.538H115.369V294H113.208ZM120.214 286.786C120.214 284.865 120.678 283.347 121.606 282.232C122.542 281.109 123.775 280.548 125.305 280.548C126.835 280.548 128.063 281.093 128.991 282.184C129.927 283.274 130.407 284.759 130.432 286.639V288.031C130.432 289.943 129.968 291.457 129.04 292.572C128.112 293.687 126.875 294.244 125.329 294.244C123.799 294.244 122.57 293.703 121.643 292.621C120.723 291.538 120.247 290.073 120.214 288.226V286.786ZM122.375 288.031C122.375 289.39 122.639 290.46 123.168 291.241C123.706 292.014 124.426 292.401 125.329 292.401C127.233 292.401 128.214 291.026 128.271 288.275V286.786C128.271 285.435 128.002 284.369 127.465 283.587C126.928 282.798 126.208 282.403 125.305 282.403C124.418 282.403 123.706 282.798 123.168 283.587C122.639 284.369 122.375 285.431 122.375 286.773V288.031ZM139.171 282.818C138.87 282.761 138.545 282.733 138.195 282.733C137.088 282.733 136.315 283.339 135.875 284.552V294H133.715V280.792H135.814L135.851 282.135C136.429 281.077 137.247 280.548 138.305 280.548C138.646 280.548 138.931 280.605 139.159 280.719L139.171 282.818ZM143.871 280.792L143.919 282.013C144.725 281.036 145.787 280.548 147.105 280.548C148.578 280.548 149.608 281.187 150.194 282.464C151.024 281.187 152.18 280.548 153.661 280.548C156.094 280.548 157.339 282.066 157.396 285.101V294H155.248V285.309C155.248 284.348 155.077 283.636 154.735 283.172C154.393 282.7 153.815 282.464 153.001 282.464C152.35 282.464 151.821 282.717 151.415 283.221C151.008 283.726 150.772 284.369 150.707 285.15V294H148.534V285.211C148.509 283.38 147.765 282.464 146.3 282.464C145.209 282.464 144.44 283.01 143.993 284.1V294H141.844V280.792H143.871ZM167.955 294C167.824 293.715 167.731 293.235 167.674 292.56C166.909 293.683 165.932 294.244 164.744 294.244C163.548 294.244 162.612 293.91 161.937 293.243C161.269 292.568 160.936 291.62 160.936 290.399C160.936 289.056 161.391 287.99 162.303 287.201C163.214 286.411 164.463 286.008 166.05 285.992H167.637V284.588C167.637 283.799 167.462 283.237 167.112 282.904C166.762 282.57 166.229 282.403 165.513 282.403C164.862 282.403 164.333 282.599 163.926 282.989C163.519 283.372 163.316 283.86 163.316 284.454H161.155C161.155 283.779 161.355 283.136 161.753 282.525C162.152 281.907 162.689 281.423 163.365 281.073C164.04 280.723 164.793 280.548 165.623 280.548C166.974 280.548 167.999 280.886 168.699 281.561C169.407 282.228 169.769 283.205 169.786 284.491V291.156C169.794 292.173 169.932 293.056 170.201 293.805V294H167.955ZM165.074 292.279C165.603 292.279 166.107 292.132 166.587 291.839C167.068 291.546 167.417 291.18 167.637 290.741V287.591H166.417C165.391 287.608 164.581 287.84 163.987 288.287C163.393 288.727 163.096 289.345 163.096 290.143C163.096 290.891 163.247 291.437 163.548 291.778C163.849 292.112 164.358 292.279 165.074 292.279ZM178.232 292.401C178.949 292.401 179.522 292.181 179.954 291.742C180.385 291.294 180.621 290.659 180.662 289.837H182.7C182.651 291.107 182.2 292.161 181.345 292.999C180.499 293.829 179.461 294.244 178.232 294.244C176.597 294.244 175.347 293.731 174.485 292.706C173.63 291.673 173.203 290.139 173.203 288.104V286.651C173.203 284.658 173.63 283.144 174.485 282.11C175.339 281.069 176.584 280.548 178.22 280.548C179.571 280.548 180.641 280.975 181.431 281.83C182.228 282.684 182.651 283.852 182.7 285.333H180.662C180.613 284.356 180.377 283.624 179.954 283.136C179.539 282.647 178.961 282.403 178.22 282.403C177.26 282.403 176.548 282.721 176.084 283.355C175.62 283.982 175.38 285.016 175.364 286.456V288.141C175.364 289.695 175.592 290.794 176.047 291.437C176.511 292.079 177.24 292.401 178.232 292.401ZM188.022 294H185.861V280.792H188.022V294ZM188.193 277.289C188.193 277.655 188.091 277.96 187.888 278.204C187.684 278.448 187.375 278.57 186.96 278.57C186.553 278.57 186.248 278.448 186.044 278.204C185.841 277.96 185.739 277.655 185.739 277.289C185.739 276.922 185.841 276.613 186.044 276.361C186.248 276.109 186.553 275.982 186.96 275.982C187.367 275.982 187.672 276.113 187.875 276.373C188.087 276.625 188.193 276.931 188.193 277.289ZM191.476 286.786C191.476 284.865 191.94 283.347 192.868 282.232C193.804 281.109 195.036 280.548 196.566 280.548C198.096 280.548 199.325 281.093 200.253 282.184C201.189 283.274 201.669 284.759 201.693 286.639V288.031C201.693 289.943 201.229 291.457 200.302 292.572C199.374 293.687 198.137 294.244 196.591 294.244C195.061 294.244 193.832 293.703 192.904 292.621C191.985 291.538 191.509 290.073 191.476 288.226V286.786ZM193.637 288.031C193.637 289.39 193.901 290.46 194.43 291.241C194.967 292.014 195.688 292.401 196.591 292.401C198.495 292.401 199.476 291.026 199.533 288.275V286.786C199.533 285.435 199.264 284.369 198.727 283.587C198.19 282.798 197.47 282.403 196.566 282.403C195.679 282.403 194.967 282.798 194.43 283.587C193.901 284.369 193.637 285.431 193.637 286.773V288.031ZM197.58 275.25H200.314L197.042 278.839H195.224L197.58 275.25ZM207.015 280.792L207.076 282.22C207.914 281.105 208.985 280.548 210.287 280.548C212.622 280.548 213.806 282.106 213.839 285.223V294H211.69V285.321C211.69 284.287 211.515 283.555 211.166 283.124C210.824 282.684 210.307 282.464 209.615 282.464C209.078 282.464 208.594 282.643 208.163 283.001C207.739 283.36 207.398 283.827 207.137 284.405V294H204.977V280.792H207.015ZM223.372 286.798C223.372 284.763 223.75 283.213 224.507 282.147C225.272 281.081 226.366 280.548 227.791 280.548C229.052 280.548 230.037 281.061 230.745 282.086V275.25H232.905V294H230.928L230.818 292.584C230.11 293.691 229.097 294.244 227.778 294.244C226.411 294.244 225.337 293.715 224.556 292.657C223.783 291.591 223.388 290.09 223.372 288.153V286.798ZM225.532 288.031C225.532 289.512 225.752 290.602 226.191 291.302C226.631 291.994 227.347 292.34 228.34 292.34C229.414 292.34 230.216 291.799 230.745 290.716V284.051C230.191 282.993 229.394 282.464 228.352 282.464C227.359 282.464 226.643 282.814 226.204 283.514C225.764 284.206 225.54 285.272 225.532 286.712V288.031ZM241.45 294.244C239.806 294.244 238.544 293.756 237.666 292.779C236.787 291.795 236.339 290.354 236.323 288.458V286.859C236.323 284.889 236.75 283.347 237.604 282.232C238.467 281.109 239.667 280.548 241.206 280.548C242.752 280.548 243.907 281.04 244.672 282.025C245.437 283.01 245.828 284.544 245.844 286.627V288.043H238.471V288.348C238.471 289.764 238.736 290.794 239.265 291.437C239.802 292.079 240.571 292.401 241.572 292.401C242.207 292.401 242.764 292.283 243.244 292.047C243.732 291.803 244.188 291.42 244.611 290.899L245.734 292.267C244.799 293.585 243.37 294.244 241.45 294.244ZM241.206 282.403C240.31 282.403 239.647 282.713 239.216 283.331C238.785 283.941 238.54 284.894 238.483 286.188H243.684V285.895C243.627 284.641 243.399 283.746 243 283.209C242.609 282.672 242.011 282.403 241.206 282.403ZM259.771 292.401C260.488 292.401 261.061 292.181 261.493 291.742C261.924 291.294 262.16 290.659 262.201 289.837H264.239C264.19 291.107 263.739 292.161 262.884 292.999C262.038 293.829 261 294.244 259.771 294.244C258.136 294.244 256.887 293.731 256.024 292.706C255.169 291.673 254.742 290.139 254.742 288.104V286.651C254.742 284.658 255.169 283.144 256.024 282.11C256.878 281.069 258.124 280.548 259.759 280.548C261.11 280.548 262.18 280.975 262.97 281.83C263.767 282.684 264.19 283.852 264.239 285.333H262.201C262.152 284.356 261.916 283.624 261.493 283.136C261.078 282.647 260.5 282.403 259.759 282.403C258.799 282.403 258.087 282.721 257.623 283.355C257.159 283.982 256.919 285.016 256.903 286.456V288.141C256.903 289.695 257.131 290.794 257.586 291.437C258.05 292.079 258.779 292.401 259.771 292.401ZM266.778 286.786C266.778 284.865 267.242 283.347 268.169 282.232C269.105 281.109 270.338 280.548 271.868 280.548C273.398 280.548 274.627 281.093 275.555 282.184C276.491 283.274 276.971 284.759 276.995 286.639V288.031C276.995 289.943 276.531 291.457 275.604 292.572C274.676 293.687 273.439 294.244 271.893 294.244C270.363 294.244 269.134 293.703 268.206 292.621C267.286 291.538 266.81 290.073 266.778 288.226V286.786ZM268.938 288.031C268.938 289.39 269.203 290.46 269.732 291.241C270.269 292.014 270.989 292.401 271.893 292.401C273.797 292.401 274.778 291.026 274.834 288.275V286.786C274.834 285.435 274.566 284.369 274.029 283.587C273.492 282.798 272.771 282.403 271.868 282.403C270.981 282.403 270.269 282.798 269.732 283.587C269.203 284.369 268.938 285.431 268.938 286.773V288.031ZM282.317 280.792L282.378 282.22C283.216 281.105 284.286 280.548 285.588 280.548C287.924 280.548 289.108 282.106 289.141 285.223V294H286.992V285.321C286.992 284.287 286.817 283.555 286.467 283.124C286.125 282.684 285.609 282.464 284.917 282.464C284.38 282.464 283.896 282.643 283.464 283.001C283.041 283.36 282.699 283.827 282.439 284.405V294H280.278V280.792H282.317ZM295.72 277.594V280.792H297.709V282.538H295.72V290.729C295.72 291.249 295.805 291.644 295.976 291.913C296.147 292.181 296.44 292.315 296.855 292.315C297.14 292.315 297.429 292.267 297.722 292.169L297.697 294C297.209 294.163 296.708 294.244 296.196 294.244C295.341 294.244 294.69 293.939 294.243 293.329C293.795 292.718 293.571 291.856 293.571 290.741V282.538H291.557V280.792H293.571V277.594H295.72ZM307.584 294C307.454 293.715 307.361 293.235 307.304 292.56C306.539 293.683 305.562 294.244 304.374 294.244C303.178 294.244 302.242 293.91 301.566 293.243C300.899 292.568 300.565 291.62 300.565 290.399C300.565 289.056 301.021 287.99 301.933 287.201C302.844 286.411 304.093 286.008 305.68 285.992H307.267V284.588C307.267 283.799 307.092 283.237 306.742 282.904C306.392 282.57 305.859 282.403 305.143 282.403C304.492 282.403 303.963 282.599 303.556 282.989C303.149 283.372 302.946 283.86 302.946 284.454H300.785C300.785 283.779 300.985 283.136 301.383 282.525C301.782 281.907 302.319 281.423 302.995 281.073C303.67 280.723 304.423 280.548 305.253 280.548C306.604 280.548 307.629 280.886 308.329 281.561C309.037 282.228 309.399 283.205 309.416 284.491V291.156C309.424 292.173 309.562 293.056 309.831 293.805V294H307.584ZM304.704 292.279C305.233 292.279 305.737 292.132 306.217 291.839C306.697 291.546 307.047 291.18 307.267 290.741V287.591H306.046C305.021 287.608 304.211 287.84 303.617 288.287C303.023 288.727 302.726 289.345 302.726 290.143C302.726 290.891 302.877 291.437 303.178 291.778C303.479 292.112 303.987 292.279 304.704 292.279ZM317.862 292.401C318.578 292.401 319.152 292.181 319.583 291.742C320.015 291.294 320.251 290.659 320.292 289.837H322.33C322.281 291.107 321.83 292.161 320.975 292.999C320.129 293.829 319.091 294.244 317.862 294.244C316.227 294.244 314.977 293.731 314.115 292.706C313.26 291.673 312.833 290.139 312.833 288.104V286.651C312.833 284.658 313.26 283.144 314.115 282.11C314.969 281.069 316.214 280.548 317.85 280.548C319.201 280.548 320.271 280.975 321.061 281.83C321.858 282.684 322.281 283.852 322.33 285.333H320.292C320.243 284.356 320.007 283.624 319.583 283.136C319.168 282.647 318.591 282.403 317.85 282.403C316.89 282.403 316.178 282.721 315.714 283.355C315.25 283.982 315.01 285.016 314.994 286.456V288.141C314.994 289.695 315.222 290.794 315.677 291.437C316.141 292.079 316.869 292.401 317.862 292.401ZM328.152 277.594V280.792H330.142V282.538H328.152V290.729C328.152 291.249 328.238 291.644 328.409 291.913C328.58 292.181 328.873 292.315 329.288 292.315C329.572 292.315 329.861 292.267 330.154 292.169L330.13 294C329.642 294.163 329.141 294.244 328.628 294.244C327.774 294.244 327.123 293.939 326.675 293.329C326.228 292.718 326.004 291.856 326.004 290.741V282.538H323.99V280.792H326.004V277.594H328.152ZM332.522 286.786C332.522 284.865 332.986 283.347 333.914 282.232C334.849 281.109 336.082 280.548 337.612 280.548C339.142 280.548 340.371 281.093 341.299 282.184C342.235 283.274 342.715 284.759 342.739 286.639V288.031C342.739 289.943 342.275 291.457 341.348 292.572C340.42 293.687 339.183 294.244 337.637 294.244C336.107 294.244 334.878 293.703 333.95 292.621C333.031 291.538 332.555 290.073 332.522 288.226V286.786ZM334.683 288.031C334.683 289.39 334.947 290.46 335.476 291.241C336.013 292.014 336.733 292.401 337.637 292.401C339.541 292.401 340.522 291.026 340.579 288.275V286.786C340.579 285.435 340.31 284.369 339.773 283.587C339.236 282.798 338.516 282.403 337.612 282.403C336.725 282.403 336.013 282.798 335.476 283.587C334.947 284.369 334.683 285.431 334.683 286.773V288.031ZM346.169 292.816C346.169 292.425 346.283 292.1 346.511 291.839C346.747 291.579 347.097 291.449 347.561 291.449C348.024 291.449 348.374 291.579 348.61 291.839C348.854 292.1 348.977 292.425 348.977 292.816C348.977 293.19 348.854 293.504 348.61 293.756C348.374 294.008 348.024 294.134 347.561 294.134C347.097 294.134 346.747 294.008 346.511 293.756C346.283 293.504 346.169 293.19 346.169 292.816Z" fill="#1C1B1B"/>
</svg>
