<svg width="213" height="185" viewBox="0 0 213 185" fill="none" xmlns="http://www.w3.org/2000/svg">
<path d="M38.9531 35.1592C38.7741 39.2119 37.6348 42.2799 35.5352 44.3633C33.4355 46.4466 30.4733 47.4883 26.6484 47.4883C22.6283 47.4883 19.5439 46.1699 17.3955 43.5332C15.2633 40.8802 14.1973 37.1042 14.1973 32.2051V26.2236C14.1973 21.3408 15.304 17.5811 17.5176 14.9443C19.7311 12.2913 22.8073 10.9648 26.7461 10.9648C30.6198 10.9648 33.5576 12.0472 35.5596 14.2119C37.5778 16.3766 38.7253 19.4854 39.002 23.5381H31.7998C31.7347 21.0316 31.3441 19.3063 30.6279 18.3623C29.9281 17.402 28.6341 16.9219 26.7461 16.9219C24.8255 16.9219 23.4665 17.5973 22.6689 18.9482C21.8714 20.2829 21.4482 22.4883 21.3994 25.5645V32.2783C21.3994 35.8102 21.79 38.2354 22.5713 39.5537C23.3688 40.8721 24.7279 41.5312 26.6484 41.5312C28.5365 41.5312 29.8385 41.0755 30.5547 40.1641C31.2708 39.2363 31.6777 37.568 31.7754 35.1592H38.9531ZM43.2246 32.9375C43.2246 28.9336 44.1686 25.7923 46.0566 23.5137C47.9447 21.235 50.557 20.0957 53.8936 20.0957C57.2627 20.0957 59.8913 21.235 61.7793 23.5137C63.6673 25.7923 64.6113 28.9499 64.6113 32.9863V34.6709C64.6113 38.6911 63.6755 41.8324 61.8037 44.0947C59.932 46.3571 57.3115 47.4883 53.9424 47.4883C50.557 47.4883 47.9202 46.3571 46.0322 44.0947C44.1605 41.8161 43.2246 38.6585 43.2246 34.6221V32.9375ZM50.1582 34.6709C50.1582 39.391 51.4196 41.751 53.9424 41.751C56.2699 41.751 57.5231 39.7816 57.7021 35.8428L57.7266 32.9375C57.7266 30.5286 57.3929 28.7464 56.7256 27.5908C56.0583 26.4189 55.1143 25.833 53.8936 25.833C52.7217 25.833 51.8021 26.4189 51.1348 27.5908C50.4837 28.7464 50.1582 30.5286 50.1582 32.9375V34.6709ZM76.2559 20.584L76.4512 23.1963C78.0137 21.1292 80.0563 20.0957 82.5791 20.0957C87.1201 20.0957 89.4557 23.2777 89.5859 29.6416V47H82.6523V30.1543C82.6523 28.6569 82.4245 27.5745 81.9688 26.9072C81.5293 26.2236 80.748 25.8818 79.625 25.8818C78.3717 25.8818 77.3952 26.5247 76.6953 27.8105V47H69.7617V20.584H76.2559ZM103.574 14.0898V20.584H107.114V25.7842H103.574V38.8945C103.574 39.9362 103.713 40.6523 103.989 41.043C104.282 41.4336 104.836 41.6289 105.649 41.6289C106.317 41.6289 106.862 41.5719 107.285 41.458L107.236 46.8291C106.064 47.2686 104.795 47.4883 103.428 47.4883C98.9681 47.4883 96.7139 44.9329 96.665 39.8223V25.7842H93.6133V20.584H96.665V14.0898H103.574ZM124.472 47C124.276 46.5931 124.081 45.9095 123.886 44.9492C122.649 46.6419 120.972 47.4883 118.856 47.4883C116.643 47.4883 114.804 46.7559 113.339 45.291C111.89 43.8262 111.166 41.93 111.166 39.6025C111.166 36.8356 112.045 34.6953 113.803 33.1816C115.577 31.668 118.124 30.8949 121.444 30.8623H123.544V28.7383C123.544 27.5501 123.34 26.7119 122.934 26.2236C122.527 25.7354 121.933 25.4912 121.151 25.4912C119.426 25.4912 118.563 26.5003 118.563 28.5186H111.654C111.654 26.0771 112.566 24.0671 114.389 22.4883C116.228 20.8932 118.547 20.0957 121.347 20.0957C124.244 20.0957 126.482 20.8525 128.061 22.3662C129.656 23.8636 130.453 26.012 130.453 28.8115V41.2383C130.486 43.5169 130.811 45.2992 131.43 46.585V47H124.472ZM120.395 42.0684C121.16 42.0684 121.811 41.9137 122.348 41.6045C122.885 41.2952 123.284 40.929 123.544 40.5059V35.0127H121.884C120.712 35.0127 119.784 35.387 119.101 36.1357C118.433 36.8844 118.1 37.8854 118.1 39.1387C118.1 41.0918 118.865 42.0684 120.395 42.0684ZM146.004 41.751C148.006 41.751 149.023 40.4489 149.056 37.8447H155.55C155.517 40.7256 154.63 43.0531 152.889 44.8271C151.147 46.6012 148.901 47.4883 146.15 47.4883C142.749 47.4883 140.153 46.4303 138.362 44.3145C136.572 42.1986 135.66 39.0817 135.628 34.9639V32.8643C135.628 28.7139 136.507 25.5482 138.265 23.3672C140.039 21.1862 142.651 20.0957 146.102 20.0957C149.015 20.0957 151.31 20.999 152.986 22.8057C154.663 24.596 155.517 27.1432 155.55 30.4473H149.056C149.039 28.9661 148.795 27.8268 148.323 27.0293C147.851 26.2318 147.07 25.833 145.979 25.833C144.775 25.833 143.912 26.2643 143.392 27.127C142.871 27.9733 142.594 29.6253 142.562 32.083V34.7686C142.562 36.917 142.667 38.4225 142.879 39.2852C143.09 40.1315 143.44 40.7581 143.929 41.165C144.417 41.5557 145.109 41.751 146.004 41.751ZM168.488 14.0898V20.584H172.028V25.7842H168.488V38.8945C168.488 39.9362 168.627 40.6523 168.903 41.043C169.196 41.4336 169.75 41.6289 170.563 41.6289C171.231 41.6289 171.776 41.5719 172.199 41.458L172.15 46.8291C170.979 47.2686 169.709 47.4883 168.342 47.4883C163.882 47.4883 161.628 44.9329 161.579 39.8223V25.7842H158.527V20.584H161.579V14.0898H168.488ZM175.299 32.9375C175.299 28.9336 176.243 25.7923 178.131 23.5137C180.019 21.235 182.631 20.0957 185.968 20.0957C189.337 20.0957 191.965 21.235 193.854 23.5137C195.742 25.7923 196.686 28.9499 196.686 32.9863V34.6709C196.686 38.6911 195.75 41.8324 193.878 44.0947C192.006 46.3571 189.386 47.4883 186.017 47.4883C182.631 47.4883 179.994 46.3571 178.106 44.0947C176.235 41.8161 175.299 38.6585 175.299 34.6221V32.9375ZM182.232 34.6709C182.232 39.391 183.494 41.751 186.017 41.751C188.344 41.751 189.597 39.7816 189.776 35.8428L189.801 32.9375C189.801 30.5286 189.467 28.7464 188.8 27.5908C188.132 26.4189 187.188 25.833 185.968 25.833C184.796 25.833 183.876 26.4189 183.209 27.5908C182.558 28.7464 182.232 30.5286 182.232 32.9375V34.6709Z" fill="#1C1B1B"/>
<line y1="69" x2="213" y2="69" stroke="#D5C2C8" stroke-width="4"/>
<path d="M37 126.337H20.3333C18.1232 126.337 16.0036 127.215 14.4408 128.777C12.878 130.34 12 132.46 12 134.67C12 136.88 12.878 139 14.4408 140.562C16.0036 142.125 18.1232 143.003 20.3333 143.003H37C39.2101 143.003 41.3298 142.125 42.8926 140.562C44.4554 139 45.3333 136.88 45.3333 134.67C45.3333 132.46 44.4554 130.34 42.8926 128.777C41.3298 127.215 39.2101 126.337 37 126.337ZM176.833 102.67V102.17C174.446 99.2514 171.429 96.9109 168.009 95.3235C164.588 93.736 160.853 92.9428 157.083 93.0032H91C84.8767 92.9482 78.9462 95.1425 74.3333 99.1699C70.025 102.966 67.1924 108.159 66.3333 113.837L59 155.503C58.3694 159.101 58.535 162.794 59.4853 166.322C60.4355 169.849 62.1472 173.125 64.5 175.92C66.8405 178.705 69.7607 180.946 73.0567 182.486C76.3528 184.026 79.9452 184.828 83.5833 184.837H149.75C155.694 184.926 161.475 182.895 166.057 179.108C170.638 175.32 173.72 170.024 174.75 164.17L182.083 122.503C182.661 119.014 182.492 115.442 181.587 112.023C180.682 108.604 179.061 105.416 176.833 102.67V102.67ZM154 109.67L125.667 132.67C123.991 134.02 121.859 134.67 119.715 134.483C117.572 134.297 115.584 133.289 114.167 131.67L94.75 109.67H154ZM158 161.087C157.663 163.043 156.638 164.815 155.11 166.083C153.582 167.351 151.652 168.032 149.667 168.003H83.5833C82.3732 167.993 81.1797 167.719 80.086 167.201C78.9923 166.683 78.0245 165.933 77.25 165.003C76.4735 164.078 75.9074 162.995 75.5909 161.83C75.2743 160.664 75.2149 159.444 75.4167 158.253L82.0833 120.503L101.667 142.67C105.929 147.515 111.9 150.523 118.33 151.067C124.76 151.611 131.151 149.647 136.167 145.587L164.833 122.17L158 161.087ZM45.3333 93.0032H20.3333C18.1232 93.0032 16.0036 93.8812 14.4408 95.444C12.878 97.0068 12 99.1264 12 101.337C12 103.547 12.878 105.666 14.4408 107.229C16.0036 108.792 18.1232 109.67 20.3333 109.67H45.3333C47.5435 109.67 49.6631 108.792 51.2259 107.229C52.7887 105.666 53.6667 103.547 53.6667 101.337C53.6667 99.1264 52.7887 97.0068 51.2259 95.444C49.6631 93.8812 47.5435 93.0032 45.3333 93.0032Z" fill="#D2B5B7"/>
</svg>
