<svg width="350" height="350" viewBox="0 0 350 350" fill="none" xmlns="http://www.w3.org/2000/svg">
<circle cx="175" cy="175" r="175" fill="#A3A4B6" fill-opacity="0.5"/>
<g filter="url(#filter0_d)">
<path d="M49.6953 165.012H46.1309V178H38.9531V142.453H50.4033C54.0003 142.453 56.7754 143.389 58.7285 145.261C60.6979 147.116 61.6826 149.761 61.6826 153.195C61.6826 157.915 59.9655 161.219 56.5312 163.107L62.7568 177.658V178H55.042L49.6953 165.012ZM46.1309 159.03H50.208C51.6403 159.03 52.7145 158.558 53.4307 157.614C54.1468 156.654 54.5049 155.376 54.5049 153.781C54.5049 150.217 53.1133 148.435 50.3301 148.435H46.1309V159.03ZM78.8213 178C78.626 177.593 78.4307 176.91 78.2354 175.949C76.9984 177.642 75.3219 178.488 73.2061 178.488C70.9925 178.488 69.1533 177.756 67.6885 176.291C66.2399 174.826 65.5156 172.93 65.5156 170.603C65.5156 167.836 66.3945 165.695 68.1523 164.182C69.9264 162.668 72.4736 161.895 75.7939 161.862H77.8936V159.738C77.8936 158.55 77.6901 157.712 77.2832 157.224C76.8763 156.735 76.2822 156.491 75.501 156.491C73.7757 156.491 72.9131 157.5 72.9131 159.519H66.0039C66.0039 157.077 66.9154 155.067 68.7383 153.488C70.5775 151.893 72.8968 151.096 75.6963 151.096C78.5934 151.096 80.8314 151.853 82.4102 153.366C84.0052 154.864 84.8027 157.012 84.8027 159.812V172.238C84.8353 174.517 85.1608 176.299 85.7793 177.585V178H78.8213ZM74.7441 173.068C75.5091 173.068 76.1602 172.914 76.6973 172.604C77.2344 172.295 77.6331 171.929 77.8936 171.506V166.013H76.2334C75.0615 166.013 74.1338 166.387 73.4502 167.136C72.7829 167.884 72.4492 168.885 72.4492 170.139C72.4492 172.092 73.2142 173.068 74.7441 173.068ZM97.0586 178H90.125V151.584H97.0586V178ZM89.8076 144.748C89.8076 143.674 90.1494 142.795 90.833 142.111C91.5166 141.428 92.4281 141.086 93.5674 141.086C94.7067 141.086 95.6182 141.428 96.3018 142.111C96.9854 142.795 97.3271 143.674 97.3271 144.748C97.3271 145.806 96.9854 146.685 96.3018 147.385C95.6344 148.085 94.723 148.435 93.5674 148.435C92.4118 148.435 91.4922 148.085 90.8086 147.385C90.1413 146.685 89.8076 145.806 89.8076 144.748ZM110.047 172.263H120.496V178H101.844V173.679L112.049 157.346H102.088V151.584H120.35V155.759L110.047 172.263ZM137.61 178C137.415 177.593 137.22 176.91 137.024 175.949C135.787 177.642 134.111 178.488 131.995 178.488C129.782 178.488 127.942 177.756 126.478 176.291C125.029 174.826 124.305 172.93 124.305 170.603C124.305 167.836 125.184 165.695 126.941 164.182C128.715 162.668 131.263 161.895 134.583 161.862H136.683V159.738C136.683 158.55 136.479 157.712 136.072 157.224C135.665 156.735 135.071 156.491 134.29 156.491C132.565 156.491 131.702 157.5 131.702 159.519H124.793C124.793 157.077 125.704 155.067 127.527 153.488C129.367 151.893 131.686 151.096 134.485 151.096C137.382 151.096 139.62 151.853 141.199 153.366C142.794 154.864 143.592 157.012 143.592 159.812V172.238C143.624 174.517 143.95 176.299 144.568 177.585V178H137.61ZM133.533 173.068C134.298 173.068 134.949 172.914 135.486 172.604C136.023 172.295 136.422 171.929 136.683 171.506V166.013H135.022C133.851 166.013 132.923 166.387 132.239 167.136C131.572 167.884 131.238 168.885 131.238 170.139C131.238 172.092 132.003 173.068 133.533 173.068ZM167.64 172.043H180.237V178H160.462V142.453H167.64V172.043ZM183.24 163.938C183.24 159.934 184.184 156.792 186.072 154.514C187.96 152.235 190.573 151.096 193.909 151.096C197.278 151.096 199.907 152.235 201.795 154.514C203.683 156.792 204.627 159.95 204.627 163.986V165.671C204.627 169.691 203.691 172.832 201.819 175.095C199.948 177.357 197.327 178.488 193.958 178.488C190.573 178.488 187.936 177.357 186.048 175.095C184.176 172.816 183.24 169.659 183.24 165.622V163.938ZM190.174 165.671C190.174 170.391 191.435 172.751 193.958 172.751C196.285 172.751 197.539 170.782 197.718 166.843L197.742 163.938C197.742 161.529 197.409 159.746 196.741 158.591C196.074 157.419 195.13 156.833 193.909 156.833C192.737 156.833 191.818 157.419 191.15 158.591C190.499 159.746 190.174 161.529 190.174 163.938V165.671ZM215.271 151.584L215.467 154.196C217.029 152.129 219.072 151.096 221.595 151.096C226.136 151.096 228.471 154.278 228.602 160.642V178H221.668V161.154C221.668 159.657 221.44 158.575 220.984 157.907C220.545 157.224 219.764 156.882 218.641 156.882C217.387 156.882 216.411 157.525 215.711 158.811V178H208.777V151.584H215.271ZM232.728 163.986C232.728 159.657 233.509 156.426 235.071 154.294C236.634 152.162 238.823 151.096 241.639 151.096C244.031 151.096 245.879 152.04 247.181 153.928L247.449 151.584H253.675V178C253.675 181.369 252.731 183.941 250.843 185.715C248.955 187.505 246.245 188.4 242.713 188.4C241.264 188.4 239.743 188.107 238.147 187.521C236.552 186.952 235.364 186.219 234.583 185.324L236.902 180.539C237.553 181.223 238.4 181.776 239.441 182.199C240.483 182.639 241.468 182.858 242.396 182.858C243.942 182.858 245.049 182.484 245.716 181.735C246.399 181.003 246.749 179.815 246.766 178.171V175.9C245.447 177.626 243.73 178.488 241.614 178.488C238.799 178.488 236.618 177.398 235.071 175.217C233.541 173.02 232.76 169.927 232.728 165.939V163.986ZM239.637 165.72C239.637 168.161 239.954 169.943 240.589 171.066C241.224 172.173 242.233 172.727 243.616 172.727C245.032 172.727 246.082 172.214 246.766 171.188V158.566C246.049 157.443 245.016 156.882 243.665 156.882C242.298 156.882 241.281 157.443 240.613 158.566C239.962 159.689 239.637 161.496 239.637 163.986V165.72ZM271.253 178C271.058 177.593 270.862 176.91 270.667 175.949C269.43 177.642 267.754 178.488 265.638 178.488C263.424 178.488 261.585 177.756 260.12 176.291C258.672 174.826 257.947 172.93 257.947 170.603C257.947 167.836 258.826 165.695 260.584 164.182C262.358 162.668 264.905 161.895 268.226 161.862H270.325V159.738C270.325 158.55 270.122 157.712 269.715 157.224C269.308 156.735 268.714 156.491 267.933 156.491C266.207 156.491 265.345 157.5 265.345 159.519H258.436C258.436 157.077 259.347 155.067 261.17 153.488C263.009 151.893 265.328 151.096 268.128 151.096C271.025 151.096 273.263 151.853 274.842 153.366C276.437 154.864 277.234 157.012 277.234 159.812V172.238C277.267 174.517 277.592 176.299 278.211 177.585V178H271.253ZM267.176 173.068C267.941 173.068 268.592 172.914 269.129 172.604C269.666 172.295 270.065 171.929 270.325 171.506V166.013H268.665C267.493 166.013 266.565 166.387 265.882 167.136C265.215 167.884 264.881 168.885 264.881 170.139C264.881 172.092 265.646 173.068 267.176 173.068ZM295.276 158.249L292.981 158.054C291.093 158.054 289.816 158.884 289.148 160.544V178H282.215V151.584H288.733L288.929 154.44C290.019 152.211 291.525 151.096 293.445 151.096C294.227 151.096 294.861 151.201 295.35 151.413L295.276 158.249ZM308.094 145.09V151.584H311.634V156.784H308.094V169.895C308.094 170.936 308.232 171.652 308.509 172.043C308.802 172.434 309.355 172.629 310.169 172.629C310.836 172.629 311.382 172.572 311.805 172.458L311.756 177.829C310.584 178.269 309.314 178.488 307.947 178.488C303.488 178.488 301.233 175.933 301.185 170.822V156.784H298.133V151.584H301.185V145.09H308.094ZM66.0137 204.299H59.3193V213H55.0127V191.672H66.8193V195.261H59.3193V200.725H66.0137V204.299ZM76.5166 201.149L75.1396 201.032C74.0068 201.032 73.2402 201.53 72.8398 202.526V213H68.6797V197.15H72.5908L72.708 198.864C73.3623 197.526 74.2656 196.857 75.418 196.857C75.8867 196.857 76.2676 196.921 76.5605 197.048L76.5166 201.149ZM77.6445 204.562C77.6445 202.16 78.2109 200.275 79.3438 198.908C80.4766 197.541 82.0439 196.857 84.0459 196.857C86.0674 196.857 87.6445 197.541 88.7773 198.908C89.9102 200.275 90.4766 202.17 90.4766 204.592V205.603C90.4766 208.015 89.915 209.899 88.792 211.257C87.6689 212.614 86.0967 213.293 84.0752 213.293C82.0439 213.293 80.4619 212.614 79.3291 211.257C78.2061 209.89 77.6445 207.995 77.6445 205.573V204.562ZM81.8047 205.603C81.8047 208.435 82.5615 209.851 84.0752 209.851C85.4717 209.851 86.2236 208.669 86.3311 206.306L86.3457 204.562C86.3457 203.117 86.1455 202.048 85.7451 201.354C85.3447 200.651 84.7783 200.3 84.0459 200.3C83.3428 200.3 82.791 200.651 82.3906 201.354C82 202.048 81.8047 203.117 81.8047 204.562V205.603ZM96.8633 197.15L96.9805 198.718C97.918 197.478 99.1436 196.857 100.657 196.857C103.382 196.857 104.783 198.767 104.861 202.585V213H100.701V202.893C100.701 201.994 100.564 201.345 100.291 200.944C100.027 200.534 99.5586 200.329 98.8848 200.329C98.1328 200.329 97.5469 200.715 97.127 201.486V213H92.9668V197.15H96.8633ZM112.654 193.254V197.15H114.778V200.271H112.654V208.137C112.654 208.762 112.737 209.191 112.903 209.426C113.079 209.66 113.411 209.777 113.899 209.777C114.3 209.777 114.627 209.743 114.881 209.675L114.852 212.897C114.148 213.161 113.387 213.293 112.566 213.293C109.891 213.293 108.538 211.76 108.509 208.693V200.271H106.678V197.15H108.509V193.254H112.654ZM124.52 205.588H117.356V202.131H124.52V205.588ZM134.363 213.293C132.234 213.293 130.574 212.658 129.383 211.389C128.191 210.119 127.596 208.303 127.596 205.939V204.68C127.596 202.18 128.143 200.251 129.236 198.894C130.33 197.536 131.897 196.857 133.938 196.857C135.931 196.857 137.43 197.497 138.436 198.776C139.441 200.046 139.954 201.931 139.974 204.431V206.467H131.727C131.785 207.639 132.044 208.498 132.503 209.045C132.962 209.582 133.67 209.851 134.627 209.851C136.014 209.851 137.171 209.377 138.099 208.43L139.725 210.935C139.217 211.638 138.479 212.209 137.513 212.648C136.546 213.078 135.496 213.293 134.363 213.293ZM131.756 203.566H135.901V203.186C135.882 202.238 135.726 201.521 135.433 201.032C135.14 200.544 134.632 200.3 133.909 200.3C133.187 200.3 132.659 200.559 132.327 201.076C132.005 201.594 131.814 202.424 131.756 203.566ZM146.111 197.15L146.229 198.718C147.166 197.478 148.392 196.857 149.905 196.857C152.63 196.857 154.031 198.767 154.109 202.585V213H149.949V202.893C149.949 201.994 149.812 201.345 149.539 200.944C149.275 200.534 148.807 200.329 148.133 200.329C147.381 200.329 146.795 200.715 146.375 201.486V213H142.215V197.15H146.111ZM156.526 204.592C156.526 201.994 156.966 200.056 157.845 198.776C158.724 197.497 160.003 196.857 161.683 196.857C162.903 196.857 163.919 197.385 164.729 198.439V190.5H168.904V213H165.14L164.949 211.389C164.1 212.658 163.006 213.293 161.668 213.293C160.008 213.293 158.738 212.658 157.859 211.389C156.99 210.119 156.546 208.254 156.526 205.793V204.592ZM160.687 205.632C160.687 207.194 160.853 208.288 161.185 208.913C161.517 209.528 162.078 209.836 162.869 209.836C163.689 209.836 164.31 209.47 164.729 208.737V201.501C164.319 200.72 163.704 200.329 162.884 200.329C162.122 200.329 161.565 200.637 161.214 201.252C160.862 201.867 160.687 202.961 160.687 204.533V205.632ZM178.323 204.592C178.323 201.994 178.763 200.056 179.642 198.776C180.521 197.497 181.8 196.857 183.479 196.857C184.7 196.857 185.716 197.385 186.526 198.439V190.5H190.701V213H186.937L186.746 211.389C185.896 212.658 184.803 213.293 183.465 213.293C181.805 213.293 180.535 212.658 179.656 211.389C178.787 210.119 178.343 208.254 178.323 205.793V204.592ZM182.483 205.632C182.483 207.194 182.649 208.288 182.981 208.913C183.313 209.528 183.875 209.836 184.666 209.836C185.486 209.836 186.106 209.47 186.526 208.737V201.501C186.116 200.72 185.501 200.329 184.681 200.329C183.919 200.329 183.362 200.637 183.011 201.252C182.659 201.867 182.483 202.961 182.483 204.533V205.632ZM200.164 213.293C198.035 213.293 196.375 212.658 195.184 211.389C193.992 210.119 193.396 208.303 193.396 205.939V204.68C193.396 202.18 193.943 200.251 195.037 198.894C196.131 197.536 197.698 196.857 199.739 196.857C201.731 196.857 203.23 197.497 204.236 198.776C205.242 200.046 205.755 201.931 205.774 204.431V206.467H197.527C197.586 207.639 197.845 208.498 198.304 209.045C198.763 209.582 199.471 209.851 200.428 209.851C201.814 209.851 202.972 209.377 203.899 208.43L205.525 210.935C205.018 211.638 204.28 212.209 203.313 212.648C202.347 213.078 201.297 213.293 200.164 213.293ZM197.557 203.566H201.702V203.186C201.683 202.238 201.526 201.521 201.233 201.032C200.94 200.544 200.433 200.3 199.71 200.3C198.987 200.3 198.46 200.559 198.128 201.076C197.806 201.594 197.615 202.424 197.557 203.566ZM213.113 207.141L215.12 197.15H219.441L215.091 213H211.136L206.771 197.15H211.106L213.113 207.141ZM227.586 213.293C225.457 213.293 223.797 212.658 222.605 211.389C221.414 210.119 220.818 208.303 220.818 205.939V204.68C220.818 202.18 221.365 200.251 222.459 198.894C223.553 197.536 225.12 196.857 227.161 196.857C229.153 196.857 230.652 197.497 231.658 198.776C232.664 200.046 233.177 201.931 233.196 204.431V206.467H224.949C225.008 207.639 225.267 208.498 225.726 209.045C226.185 209.582 226.893 209.851 227.85 209.851C229.236 209.851 230.394 209.377 231.321 208.43L232.947 210.935C232.439 211.638 231.702 212.209 230.735 212.648C229.769 213.078 228.719 213.293 227.586 213.293ZM224.979 203.566H229.124V203.186C229.104 202.238 228.948 201.521 228.655 201.032C228.362 200.544 227.854 200.3 227.132 200.3C226.409 200.3 225.882 200.559 225.55 201.076C225.228 201.594 225.037 202.424 224.979 203.566ZM239.891 213H235.73V190.5H239.891V213ZM242.615 204.562C242.615 202.16 243.182 200.275 244.314 198.908C245.447 197.541 247.015 196.857 249.017 196.857C251.038 196.857 252.615 197.541 253.748 198.908C254.881 200.275 255.447 202.17 255.447 204.592V205.603C255.447 208.015 254.886 209.899 253.763 211.257C252.64 212.614 251.067 213.293 249.046 213.293C247.015 213.293 245.433 212.614 244.3 211.257C243.177 209.89 242.615 207.995 242.615 205.573V204.562ZM246.775 205.603C246.775 208.435 247.532 209.851 249.046 209.851C250.442 209.851 251.194 208.669 251.302 206.306L251.316 204.562C251.316 203.117 251.116 202.048 250.716 201.354C250.315 200.651 249.749 200.3 249.017 200.3C248.313 200.3 247.762 200.651 247.361 201.354C246.971 202.048 246.775 203.117 246.775 204.562V205.603ZM270.389 205.573C270.389 208.063 269.959 209.973 269.1 211.301C268.25 212.629 266.98 213.293 265.291 213.293C264.002 213.293 262.967 212.771 262.186 211.726V219.094H258.04V197.15H261.878L262.024 198.601C262.815 197.438 263.895 196.857 265.262 196.857C266.951 196.857 268.221 197.473 269.07 198.703C269.93 199.934 270.369 201.818 270.389 204.357V205.573ZM266.258 204.533C266.258 203 266.087 201.916 265.745 201.281C265.413 200.646 264.847 200.329 264.046 200.329C263.196 200.329 262.576 200.686 262.186 201.398V208.825C262.557 209.509 263.187 209.851 264.075 209.851C264.896 209.851 265.462 209.504 265.774 208.811C266.097 208.117 266.258 207.038 266.258 205.573V204.533ZM279.295 213.293C277.166 213.293 275.506 212.658 274.314 211.389C273.123 210.119 272.527 208.303 272.527 205.939V204.68C272.527 202.18 273.074 200.251 274.168 198.894C275.262 197.536 276.829 196.857 278.87 196.857C280.862 196.857 282.361 197.497 283.367 198.776C284.373 200.046 284.886 201.931 284.905 204.431V206.467H276.658C276.717 207.639 276.976 208.498 277.435 209.045C277.894 209.582 278.602 209.851 279.559 209.851C280.945 209.851 282.103 209.377 283.03 208.43L284.656 210.935C284.148 211.638 283.411 212.209 282.444 212.648C281.478 213.078 280.428 213.293 279.295 213.293ZM276.688 203.566H280.833V203.186C280.813 202.238 280.657 201.521 280.364 201.032C280.071 200.544 279.563 200.3 278.841 200.3C278.118 200.3 277.591 200.559 277.259 201.076C276.937 201.594 276.746 202.424 276.688 203.566ZM295.071 201.149L293.694 201.032C292.562 201.032 291.795 201.53 291.395 202.526V213H287.234V197.15H291.146L291.263 198.864C291.917 197.526 292.82 196.857 293.973 196.857C294.441 196.857 294.822 196.921 295.115 197.048L295.071 201.149Z" fill="#1C1B1B"/>
</g>
<defs>
<filter id="filter0_d" x="34.9531" y="141.086" width="280.852" height="86.0078" filterUnits="userSpaceOnUse" color-interpolation-filters="sRGB">
<feFlood flood-opacity="0" result="BackgroundImageFix"/>
<feColorMatrix in="SourceAlpha" type="matrix" values="0 0 0 0 0 0 0 0 0 0 0 0 0 0 0 0 0 0 127 0"/>
<feOffset dy="4"/>
<feGaussianBlur stdDeviation="2"/>
<feColorMatrix type="matrix" values="0 0 0 0 0 0 0 0 0 0 0 0 0 0 0 0 0 0 0.25 0"/>
<feBlend mode="normal" in2="BackgroundImageFix" result="effect1_dropShadow"/>
<feBlend mode="normal" in="SourceGraphic" in2="effect1_dropShadow" result="shape"/>
</filter>
</defs>
</svg>
