<svg width="80" height="80" viewBox="0 0 80 80" fill="none" xmlns="http://www.w3.org/2000/svg">
<path fill-rule="evenodd" clip-rule="evenodd" d="M3.3335 9.46017C3.3335 7.83528 3.97898 6.27694 5.12796 5.12796C6.27693 3.97899 7.83527 3.3335 9.46016 3.3335H70.5335C71.3387 3.33219 72.1363 3.48971 72.8806 3.79706C73.6249 4.10441 74.3013 4.55554 74.871 5.12462C75.4407 5.69371 75.8926 6.36958 76.2007 7.11354C76.5089 7.85749 76.6673 8.65492 76.6668 9.46017V70.5335C76.6677 71.3389 76.5098 72.1366 76.2021 72.8809C75.8943 73.6252 75.4429 74.3015 74.8736 74.8712C74.3042 75.4409 73.6281 75.8927 72.884 76.2008C72.1398 76.5089 71.3422 76.6673 70.5368 76.6668H9.46016C8.65532 76.6668 7.85836 76.5083 7.11482 76.2001C6.37128 75.8921 5.69573 75.4405 5.12678 74.8712C4.55782 74.3019 4.1066 73.6261 3.7989 72.8824C3.49121 72.1387 3.33306 71.3417 3.3335 70.5368V9.46017ZM32.3602 31.2935H42.2902V36.2802C43.7235 33.4135 47.3902 30.8335 52.9002 30.8335C63.4635 30.8335 65.9668 36.5435 65.9668 47.0202V66.4268H55.2768V49.4068C55.2768 43.4402 53.8435 40.0735 50.2035 40.0735C45.1535 40.0735 43.0535 43.7035 43.0535 49.4068V66.4268H32.3602V31.2935ZM14.0268 65.9702H24.7202V30.8335H14.0268V65.9668V65.9702ZM26.2502 19.3735C26.2703 20.2891 26.1074 21.1995 25.771 22.0512C25.4345 22.903 24.9313 23.679 24.2909 24.3336C23.6505 24.9883 22.8858 25.5084 22.0417 25.8635C21.1975 26.2186 20.291 26.4016 19.3752 26.4016C18.4594 26.4016 17.5528 26.2186 16.7086 25.8635C15.8645 25.5084 15.0998 24.9883 14.4594 24.3336C13.819 23.679 13.3158 22.903 12.9794 22.0512C12.6429 21.1995 12.48 20.2891 12.5002 19.3735C12.5397 17.5764 13.2814 15.8661 14.5664 14.6091C15.8514 13.3521 17.5776 12.6482 19.3752 12.6482C21.1728 12.6482 22.8989 13.3521 24.1839 14.6091C25.4689 15.8661 26.2106 17.5764 26.2502 19.3735Z" fill="black"/>
</svg>
